<?xml version="1.0" encoding="UTF-8"?>
<!-- Generated by Pixelmator Pro 3.6.7 -->
<svg width="2100" height="850" viewBox="0 0 2100 850" xmlns="http://www.w3.org/2000/svg">
    <path id="Path" fill="#e20612" stroke="none" d="M 818 272 C 837.702759 286.602356 843.380981 307.700134 847 330.8125 C 848.675293 342.426453 849.861694 354.071289 850.9375 365.753906 C 851.023315 366.680176 851.109253 367.606384 851.197754 368.56073 C 853.063721 388.789368 854.506104 409.039307 855.817627 429.310547 C 856.004028 432.186646 856.192139 435.062622 856.380615 437.938599 C 857.276855 451.624268 858.148071 465.311462 859 479 C 859.05603 479.898865 859.111938 480.797729 859.169678 481.723816 C 864.656006 569.962769 864.656006 569.962769 862 605 C 857.823242 605.075317 853.646729 605.12915 849.469482 605.164795 C 848.054688 605.179688 846.640015 605.200012 845.225342 605.226318 C 828.552856 605.528198 814.692322 603.162964 802.269531 591.484375 C 792.973083 581.307861 792.755249 567.763428 792.359375 554.671875 C 792.286621 552.671387 792.213867 550.670776 792.139954 548.670349 C 792.061279 546.522705 791.985657 544.374878 791.9104 542.227112 C 790.856812 512.487671 789.148499 482.808899 787.0625 453.125 C 786.997375 452.197449 786.93219 451.269897 786.865051 450.31427 C 785.253601 427.430298 783.570068 404.550964 781.6875 381.6875 C 781.565918 380.200012 781.565918 380.200012 781.441895 378.682434 C 781.220581 376.000061 780.99292 373.318298 780.761719 370.636719 C 780.698425 369.873657 780.635193 369.110535 780.569946 368.324341 C 780.271729 364.537964 780.271729 364.537964 779 361 C 771.393555 379.55835 764.731262 398.302612 758.504822 417.361755 C 756.421143 423.735596 754.304504 430.098083 752.175781 436.457031 C 751.846252 437.44165 751.516724 438.426331 751.177246 439.440796 C 750.501404 441.460266 749.825562 443.479675 749.149658 445.499146 C 743.941467 461.069458 738.793274 476.65741 733.736572 492.277588 C 729.070679 506.682556 724.363403 521.073486 719.516663 535.418701 C 718.93634 537.139282 718.358887 538.86084 717.784607 540.583496 C 714.080383 551.680481 709.817505 562.354858 704.924438 572.980835 C 703.580139 575.917114 702.28595 578.874939 700.988281 581.832031 C 700.097168 583.825867 699.205261 585.819336 698.3125 587.8125 C 697.865845 588.834106 697.419189 589.855652 696.958984 590.908203 C 694.582458 596.182129 692.578735 600.377991 688 604 C 676.564636 607.811768 660.848022 605.504517 650.113281 600.710938 C 626.95874 588.896729 618.932556 564.477417 610.875 541.4375 C 610.192383 539.50293 609.509644 537.568481 608.82666 535.634033 C 601.924377 516.016052 595.296265 496.303772 588.644531 476.599854 C 575.674438 438.182312 561.997314 400.055359 548 362 C 547.670044 362 547.339966 362 547 362 C 543.240723 392.278625 540.175415 422.565186 538 453 C 537.89624 454.444153 537.89624 454.444153 537.790344 455.91748 C 534.24408 505.855896 533.38092 555.966675 532 606 C 528.626404 605.848816 525.253052 605.693909 521.879639 605.53833 C 520.928955 605.495789 519.978271 605.453247 518.998718 605.409363 C 512.721191 605.117493 506.521484 604.694092 500.3125 603.6875 C 499.486328 603.554932 498.660278 603.422241 497.809082 603.285645 C 486.486084 601.348877 478.832886 597.693665 471 589 C 469.24469 586.428711 467.999084 583.942932 467 581 C 466.661377 580.061951 466.322754 579.123901 465.973877 578.157471 C 464.427307 572.662842 464.695557 567.027588 464.699219 561.363281 C 464.693604 560.117249 464.687927 558.871216 464.682129 557.587402 C 464.670044 553.495605 464.676392 549.404236 464.6875 545.3125 C 464.689697 543.885254 464.691895 542.458069 464.694031 541.030884 C 464.858765 461.263123 474.107422 381.475037 484.853149 302.52832 C 485.18573 300.075684 485.514771 297.622559 485.842896 295.169312 C 486.360779 291.304871 486.890747 287.442261 487.429932 283.58075 C 487.628296 282.147827 487.822937 280.714417 488.013489 279.280457 C 488.277222 277.302795 488.55658 275.327209 488.83667 273.351807 C 488.989563 272.240662 489.142456 271.129578 489.299927 269.984741 C 490.046997 266.799683 491.099915 264.650696 493 262 C 506.517639 255.24115 533.65564 262.37085 547.38916 266.892578 C 568.75946 274.440857 586.688354 288.21698 596.953857 308.734619 C 603.350952 322.587219 608.011597 337.21698 613.009155 351.610352 C 614.165405 354.937744 615.325562 358.263794 616.485596 361.589844 C 616.720215 362.262451 616.954773 362.935059 617.196472 363.628113 C 617.672974 364.994263 618.149414 366.360474 618.625977 367.726685 C 619.345581 369.790405 620.064758 371.854309 620.783875 373.918213 C 625.001099 386.019836 629.257813 398.107361 633.521362 410.192749 C 637.02356 420.125183 640.513184 430.062073 644 440 C 644.408142 441.162964 644.816284 442.325928 645.236755 443.52417 C 647.730286 450.632874 650.216187 457.744141 652.692993 464.858643 C 653.466309 467.077271 654.241394 469.295227 655.018677 471.512451 C 659.476501 484.235596 663.601196 496.950989 667 510 C 674.582642 487.415405 682.052551 464.793457 689.497253 442.163025 C 690.252075 439.868713 691.007202 437.574463 691.762329 435.280273 C 697.864075 416.737305 703.877319 398.170898 709.761902 379.557739 C 720.632935 345.228638 732.080566 309.752441 753 280 C 753.411987 279.402832 753.824036 278.805664 754.248535 278.19043 C 759.466553 270.7052 764.870789 263.598206 773.757813 260.359375 C 788.836487 257.942566 805.46051 263.941223 818 272 Z"/>
    <path id="path1" fill="#000000" stroke="none" d="M 1416.5 277.875 C 1421.644409 282.390991 1425.546997 287.102966 1429 293 C 1429.470459 293.790222 1429.94104 294.580383 1430.425781 295.394531 C 1437.366699 308.06842 1437.40332 321.281433 1437.1875 335.3125 C 1437.172363 337.035767 1437.158691 338.759094 1437.146484 340.482422 C 1437.11377 344.655273 1437.062256 348.827515 1437 353 C 1435.515015 353.494995 1435.515015 353.494995 1434 354 C 1433.296143 353.238159 1432.592285 352.476318 1431.867188 351.691406 C 1409.245605 327.791077 1376.285034 318.179749 1344.007813 317.035156 C 1314.48584 316.488892 1286.893188 326.553284 1265.243408 346.715576 C 1242.735718 368.53363 1235.402832 397.744202 1234.8125 428.125 C 1235.14856 455.618896 1240.415405 484.397949 1257 507 C 1257.603271 507.835327 1258.206543 508.670654 1258.828125 509.53125 C 1267.431274 520.862183 1277.508301 528.559204 1290 535 C 1290.857178 535.471802 1291.714478 535.943604 1292.597656 536.429688 C 1320.431396 550.633301 1357.635986 549.185059 1386.625 539.8125 C 1403.980957 533.887817 1419.283447 524.862244 1434 514 C 1440.397949 527.908508 1438.888184 542.822998 1434 557 C 1430.822266 564.884888 1426.599243 571.623108 1421 578 C 1420.417358 578.676758 1419.834717 579.353516 1419.234375 580.050781 C 1400.118408 600.73291 1368.55835 606.872986 1341.712402 608.10498 C 1298.321655 609.633301 1253.813232 597.032227 1221.5 567.1875 C 1220.582153 566.314819 1219.664307 565.442139 1218.71875 564.542969 C 1216.796631 562.745178 1214.889648 561.057495 1212.859375 559.394531 C 1183.307617 534.646912 1168.096069 492.594666 1164.75 455.3125 C 1160.750854 404.546387 1172.106567 353.371033 1205.523438 313.949219 C 1234.49646 280.645874 1272.407715 262.438416 1316 257 C 1316.758179 256.904297 1317.516235 256.808594 1318.297363 256.709961 C 1351.413452 252.947205 1389.667725 256.132141 1416.5 277.875 Z"/>
    <path id="path2" fill="#e20512" stroke="none" d="M 895 333 C 946.937012 332.231628 946.937012 332.231628 959.964844 344.753906 C 965.154785 350.481812 967.974854 356.259583 969.914063 363.730469 C 970.167358 364.703857 970.167358 364.703857 970.425781 365.69696 C 971.881348 371.365784 973.185669 377.067627 974.476807 382.775757 C 985.035767 429.444763 1000.480713 476.14209 1024 518 C 1025.561279 514.141113 1027.103516 510.275146 1028.632568 506.40332 C 1029.14856 505.103027 1029.668701 503.804321 1030.194092 502.507813 C 1040.467529 477.120605 1046.961426 450.207703 1053.959351 423.775818 C 1055.163574 419.231812 1056.375122 414.689697 1057.585327 410.147217 C 1058.577148 406.422974 1059.566895 402.698181 1060.55188 398.972168 C 1062.253906 392.537476 1063.962769 386.10553 1065.7323 379.688965 C 1066.473511 377.000549 1067.208008 374.310303 1067.942505 371.620056 C 1068.441406 369.804199 1068.950439 367.991211 1069.460083 366.178345 C 1071.442017 358.906372 1072.651733 351.865723 1073.393799 344.384888 C 1074.043335 340.757874 1075.112183 338.153687 1077 335 C 1080.610352 332.878784 1083.875732 332.743408 1088.007813 332.734375 C 1089.160278 332.731812 1090.312622 332.729248 1091.5 332.726563 C 1093.294434 332.738159 1093.294434 332.738159 1095.125 332.75 C 1096.298096 332.742249 1097.471069 332.734558 1098.679688 332.726563 C 1110.169434 332.752075 1121.642944 333.341858 1130.5625 341.414063 C 1135.963257 347.425659 1137.540283 353.615967 1137.425781 361.414063 C 1137.418335 362.199219 1137.410889 362.984375 1137.403198 363.793335 C 1137.184692 371.991211 1135.398682 379.517883 1133.1875 387.375 C 1132.7771 388.891724 1132.367676 390.408752 1131.959473 391.926025 C 1130.681396 396.629517 1129.348511 401.316284 1128 406 C 1127.789673 406.733398 1127.579346 407.466858 1127.362793 408.222473 C 1104.426147 487.996948 1075.518921 580.571045 1022 655 C 1021.240723 655.980957 1020.481445 656.961914 1019.699219 657.972656 C 1005.991577 675.184082 990.013306 687.818481 968 692 C 963.821411 692.385254 959.693848 692.421875 955.5 692.375 C 954.46228 692.386597 953.424561 692.398193 952.355469 692.410156 C 938.580078 692.358704 925.884521 688.760254 915.625 679.25 C 907.065308 670.076416 904.658325 659.255737 904.875 647.0625 C 904.884033 646.092468 904.893066 645.122437 904.902344 644.123047 C 904.925781 641.748413 904.958496 639.37439 905 637 C 906.744263 636.813232 908.488525 636.626953 910.23291 636.441895 C 911.860352 636.268799 913.487671 636.093933 915.114746 635.91748 C 920.61377 635.329224 926.114624 634.810669 931.625 634.339844 C 933.62793 634.161499 935.630737 633.981323 937.633545 633.800171 C 939.588867 633.628174 941.545654 633.472534 943.502441 633.317139 C 954.319946 632.327881 964.55249 629.501038 971.777344 620.878906 C 980.100586 609.49585 986.329956 597.345825 985 583 C 982.696533 572.773071 977.417603 563.599243 972.580322 554.401917 C 970.192627 549.855713 967.839966 545.291504 965.488281 540.726563 C 965.017334 539.812744 964.546265 538.898926 964.061035 537.957397 C 952.861694 516.156494 942.841675 493.862183 934 471 C 933.589722 469.941345 933.179565 468.88269 932.756836 467.791992 C 918.471069 430.658203 907.119873 392.865295 897.875 354.1875 C 897.579346 352.966248 897.283813 351.745056 896.979248 350.486816 C 895.591919 344.511475 894.652832 339.13562 895 333 Z"/>
    <path id="path3" fill="#000000" stroke="none" d="M 1885.085938 343.1875 C 1895.388672 352.943604 1898.031006 366.245667 1900.8125 379.625 C 1910.219727 423.00061 1924.9375 464.112122 1943.733398 504.277344 C 1945.854492 508.836853 1947.927246 513.418274 1950 518 C 1973.405518 473.341125 1985.773193 419.730591 1996.125 370.6875 C 1996.317871 369.778748 1996.510742 368.869995 1996.709473 367.933716 C 1999.477295 354.789734 1999.477295 354.789734 2000.624512 341.421143 C 2001.094971 338.387756 2002.230713 336.486633 2004 334 C 2008.214355 331.892822 2013.729004 332.814148 2018.364014 332.814697 C 2020.398438 332.812561 2022.432373 332.794495 2024.466797 332.775391 C 2036.375977 332.757813 2048.279297 333.012634 2057.5625 341.414063 C 2062.96875 347.431763 2064.538818 353.620972 2064.421875 361.425781 C 2064.414307 362.211548 2064.406494 362.997375 2064.398682 363.806946 C 2064.182373 371.936646 2062.439941 379.394104 2060.25 387.1875 C 2059.84375 388.692017 2059.438477 390.196838 2059.03418 391.701904 C 2044.216553 446.256653 2025.343018 500.078125 2003 552 C 2002.52002 553.11554 2002.040039 554.231079 2001.54541 555.380371 C 1968.050537 632.774902 1968.050537 632.774902 1944 661 C 1943.31543 661.818542 1942.631104 662.637085 1941.925781 663.480469 C 1934.114502 672.525879 1925.645996 680.000366 1915 685.4375 C 1914.384277 685.755371 1913.768799 686.073364 1913.134521 686.400879 C 1903.314941 691.130615 1893.299561 692.495728 1882.5 692.375 C 1881.462402 692.386597 1880.424561 692.398193 1879.355469 692.410156 C 1865.580078 692.358704 1852.884521 688.760254 1842.625 679.25 C 1833.920898 669.903748 1831.641235 658.86853 1831.875 646.5 C 1831.884033 645.582153 1831.893066 644.664368 1831.902344 643.71875 C 1831.925659 641.478882 1831.958374 639.239624 1832 637 C 1840.897949 635.552124 1849.616821 634.840271 1858.625 634.5625 C 1870.727295 634.135559 1881.769775 633.106567 1892 626 C 1892.675537 625.530762 1893.35083 625.061523 1894.046875 624.578125 C 1904.138184 616.677124 1910.812988 603.595825 1912.375 590.96875 C 1912.924805 577.635803 1905.780029 566.292297 1899.780029 554.819885 C 1897.499023 550.453857 1895.244873 546.073975 1892.988281 541.695313 C 1892.326416 540.412292 1892.326416 540.412292 1891.650879 539.103394 C 1860.763916 479.178711 1838.804199 414.823425 1823.691406 349.210938 C 1823.519531 348.486633 1823.347656 347.762268 1823.170654 347.015991 C 1822.163696 342.542114 1821.838989 338.547974 1822 334 C 1842.531494 331.292786 1867.97876 329.556213 1885.085938 343.1875 Z"/>
    <path id="path4" fill="#000000" stroke="none" d="M 368.023438 353.53125 C 371.113464 356.259277 374.065308 359.105591 377 362 C 377.805664 362.792786 378.611328 363.585571 379.441406 364.402344 C 398.709839 384.541992 404.515442 410.980225 406.097168 437.966553 C 406.139832 438.676331 406.182434 439.386108 406.226379 440.117432 C 407.190063 456.489014 407.263733 472.836792 407.202759 489.231506 C 407.189941 493.29126 407.189087 497.351013 407.186768 501.410767 C 407.180603 509.038269 407.164307 516.665771 407.144043 524.293274 C 407.121399 533.002441 407.110596 541.711609 407.100647 550.420776 C 407.079956 568.280579 407.044983 586.140259 407 604 C 397.065979 608.96698 378.289734 604.878296 368 602 C 356.71228 598.062439 347.642395 589.446045 342 579 C 338.599915 571.762634 338.847168 564.121399 338.826416 556.289063 C 338.819702 555.232605 338.813049 554.176086 338.806152 553.087646 C 338.792114 550.798706 338.780212 548.509827 338.770203 546.220947 C 338.753662 542.576294 338.730408 538.931702 338.705322 535.287109 C 338.634888 524.925537 338.57489 514.563843 338.523193 504.202148 C 338.491028 497.852661 338.449646 491.503357 338.403015 485.153992 C 338.387207 482.75592 338.374756 480.357849 338.366089 477.959778 C 338.322449 466.055054 338.099915 454.225952 337.085693 442.359375 C 337.006592 441.433411 336.92749 440.507385 336.845947 439.553345 C 335.455627 424.877563 331.602966 410.208984 320.457031 399.851563 C 307.512177 390.096619 292.625183 387.3526 276.707031 389.429688 C 266.231262 391.457275 256.326111 396.067017 249.589844 404.582031 C 238.825226 420.953796 236.867371 437.7052 236.794678 456.871094 C 236.785095 458.478149 236.775085 460.085205 236.764679 461.692322 C 236.737732 466.036743 236.716675 470.381165 236.696655 474.725586 C 236.674744 479.272644 236.6474 483.819702 236.620605 488.366699 C 236.570801 496.968933 236.525818 505.571228 236.482605 514.173523 C 236.433136 523.970398 236.378235 533.767212 236.322937 543.564087 C 236.209259 563.709351 236.102386 583.854675 236 604 C 231.401123 605.532959 226.817078 605.184448 222 605.1875 C 221.008728 605.199768 220.017426 605.211975 218.996094 605.224609 C 203.978149 605.253967 189.780212 601.64978 178.675781 590.925781 C 169.071655 579.888855 167.537842 566.82251 167.611816 552.648438 C 167.606567 551.383057 167.601318 550.117676 167.595886 548.813904 C 167.582336 545.38147 167.587463 541.949341 167.597046 538.516846 C 167.604706 534.889893 167.597534 531.262939 167.592865 527.635986 C 167.587433 521.540344 167.594543 515.444763 167.608887 509.349121 C 167.625153 502.359497 167.619965 495.370117 167.603394 488.380493 C 167.589661 482.329834 167.587952 476.279175 167.595703 470.228516 C 167.600342 466.636963 167.601196 463.045593 167.591125 459.454041 C 167.496948 420.494873 173.340088 388.665955 200.8125 359.75 C 243.711487 318.539978 322.259735 315.217468 368.023438 353.53125 Z"/>
    <path id="path5" fill="#be1522" stroke="none" d="M 1564.425781 37.578125 C 1583.499146 53.020447 1595.980835 73.667847 1599.75 98.0625 C 1599.83252 99.361877 1599.915039 100.661255 1600 102 C 1600.06311 102.97583 1600.126343 103.95166 1600.191406 104.957031 C 1601.941772 154.362915 1564.439087 210.670532 1540.73584 251.974121 C 1538.918457 255.142212 1537.109619 258.315186 1535.300781 261.488281 C 1527.477539 275.170349 1519.406128 288.667969 1511 302 C 1507.425293 300.808472 1507.178833 300.099609 1505.355469 296.933594 C 1504.851074 296.068542 1504.346558 295.203491 1503.826904 294.312256 C 1503.285889 293.363586 1502.744873 292.414917 1502.1875 291.4375 C 1501.328613 289.955505 1501.328613 289.955505 1500.452393 288.443604 C 1499.238403 286.34845 1498.027832 284.251282 1496.820313 282.152344 C 1495.094849 279.164246 1493.349243 276.18927 1491.59375 273.21875 C 1410.415161 135.66156 1410.415161 135.66156 1423 85 C 1429.786621 62.120667 1445.194824 42.648621 1466 31 C 1496.886963 14.590027 1536.206665 15.694885 1564.425781 37.578125 Z"/>
    <path id="path6" fill="#000000" stroke="none" d="M 1711 272 C 1711 292.130005 1711 312.26001 1711 333 C 1742.349976 333 1773.699951 333 1806 333 C 1806 372.719116 1806 372.719116 1797.070313 383.03125 C 1786.366699 393.209778 1772.841431 394.439453 1758.703125 394.511719 C 1756.730957 394.538635 1756.730957 394.538635 1754.718994 394.566101 C 1751.266724 394.613098 1747.814697 394.64325 1744.362305 394.669556 C 1740.822144 394.699646 1737.282227 394.746094 1733.742188 394.791016 C 1726.828247 394.876465 1719.914185 394.944031 1713 395 C 1712.976685 408.118652 1712.958984 421.237305 1712.948242 434.355957 C 1712.942993 440.449219 1712.935913 446.54248 1712.924561 452.635742 C 1712.913574 458.529663 1712.907715 464.423523 1712.905151 470.317444 C 1712.90332 472.552185 1712.89978 474.786926 1712.894287 477.021667 C 1712.869995 487.379639 1712.876343 497.725708 1713.400635 508.072754 C 1713.450317 509.131348 1713.450317 509.131348 1713.500977 510.211304 C 1714.08252 520.033691 1716.646118 530.07312 1724 537 C 1733.922119 544.637756 1744.855835 546.540466 1757.125 546.375 C 1758.215942 546.365601 1759.306885 546.35614 1760.430908 546.346436 C 1774.885376 546.079224 1787.575806 543.286011 1801 538 C 1801.98999 537.670044 1802.97998 537.339966 1804 537 C 1807.938965 550.298096 1808.330566 567.456543 1802 580 C 1801.552734 580.886841 1801.105347 581.773743 1800.644531 582.6875 C 1794.015259 594.630981 1784.527344 600.936035 1771.671875 605.070313 C 1742.725586 612.561401 1709.851318 607.808472 1683.888672 593.134277 C 1665.656494 582.184631 1653.014282 565.653931 1647.496216 545.110596 C 1646.686646 541.667236 1646.262939 538.213135 1645.893066 534.69873 C 1645.80957 533.921143 1645.726196 533.143555 1645.640259 532.342346 C 1644.767456 523.591858 1644.646851 514.857361 1644.585938 506.070313 C 1644.567139 504.302246 1644.547485 502.53418 1644.527222 500.766113 C 1644.47644 496.15094 1644.436646 491.535767 1644.39917 486.920471 C 1644.359375 482.308899 1644.307739 477.697388 1644.257813 473.085938 C 1643.925781 441.61615 1643.961426 410.156128 1644.287598 378.686401 C 1644.337891 373.827759 1644.384399 368.969116 1644.421875 364.110352 C 1644.458984 359.318787 1644.505249 354.527344 1644.558105 349.735901 C 1644.576416 347.937256 1644.591553 346.138489 1644.603394 344.339783 C 1644.749756 322.828186 1647.739624 306.053528 1663.089844 289.785156 C 1667.42749 285.705933 1672.218628 282.37738 1677.1875 279.125 C 1677.769775 278.743225 1678.352051 278.361389 1678.951904 277.968018 C 1689.280273 271.436523 1698.897461 272 1711 272 Z"/>
    <path id="path7" fill="#000000" stroke="none" d="M 34 261 C 39.086227 260.925232 44.172134 260.871094 49.258789 260.835205 C 50.985077 260.820251 52.711334 260.799805 54.4375 260.773682 C 69.403534 260.552856 81.202148 261.667542 92.6875 272.1875 C 102.224792 282.225586 103.305847 294.622253 103.240509 307.81311 C 103.242218 309.082642 103.243927 310.352173 103.245697 311.660095 C 103.250122 315.162903 103.242188 318.665588 103.232117 322.168396 C 103.22345 325.953552 103.22641 329.738647 103.227936 333.523804 C 103.228973 340.074951 103.222717 346.626038 103.211456 353.177124 C 103.19519 362.648804 103.190002 372.120483 103.1875 381.592163 C 103.183105 396.960815 103.1698 412.329407 103.150879 427.697998 C 103.132507 442.623779 103.118347 457.549561 103.109863 472.475342 C 103.109344 473.395996 103.108826 474.316589 103.108276 475.265076 C 103.105652 479.883728 103.103149 484.50238 103.100647 489.121033 C 103.079926 527.414063 103.044708 565.707031 103 604 C 100.627686 604.164185 98.25531 604.32666 95.882813 604.488281 C 95.218689 604.534424 94.554596 604.580566 93.870361 604.628052 C 77.710571 605.7229 61.950958 605.640747 48.648438 595.144531 C 38.381943 585.512451 34.357147 572.991699 33.908844 559.194458 C 33.874481 555.959473 33.871521 552.72583 33.879745 549.490601 C 33.878891 548.253784 33.878036 547.016907 33.877151 545.742554 C 33.875793 542.331055 33.878906 538.919556 33.883942 535.507935 C 33.888275 531.820984 33.886795 528.133972 33.886032 524.447021 C 33.885513 518.066162 33.888641 511.685303 33.894272 505.304443 C 33.902405 496.078918 33.904999 486.853394 33.906265 477.627869 C 33.908447 462.658569 33.9151 447.68927 33.924561 432.719971 C 33.933746 418.18219 33.940826 403.64447 33.945068 389.106689 C 33.945328 388.209961 33.945587 387.313232 33.945862 386.389343 C 33.947174 381.890564 33.948441 377.391846 33.949677 372.893066 C 33.960037 335.595337 33.977646 298.297668 34 261 Z"/>
    <path id="path8" fill="#000000" stroke="none" d="M 1497.178711 339.704834 C 1499.200073 339.687927 1501.221191 339.644104 1503.242188 339.599609 C 1516.856079 339.512329 1529.61438 342.533325 1539.996094 351.777344 C 1551.439697 363.811523 1552.299438 379.338135 1552.287109 395.131104 C 1552.293213 396.50415 1552.300049 397.877258 1552.307861 399.250305 C 1552.322632 402.181946 1552.331421 405.113525 1552.335571 408.045166 C 1552.342285 412.690918 1552.364136 417.336487 1552.388062 421.982178 C 1552.440918 432.679077 1552.474487 443.375977 1552.507813 454.072937 C 1552.538574 463.888489 1552.573486 473.703979 1552.624146 483.519409 C 1552.647339 488.127686 1552.661133 492.73584 1552.667603 497.344177 C 1552.673584 500.220398 1552.687744 503.096558 1552.703979 505.972717 C 1552.712524 507.920654 1552.711426 509.868652 1552.709961 511.81665 C 1552.789307 523.177612 1553.398682 533.989197 1561 543 C 1563.527344 544.891663 1566.016113 546.005371 1569 547 C 1570.155029 547.391846 1571.310059 547.783752 1572.5 548.1875 C 1580.097534 549.951172 1587.733398 550.251648 1595.5 550.5625 C 1596.513184 550.605713 1597.526367 550.648865 1598.570313 550.693359 C 1601.046753 550.798462 1603.523315 550.900635 1606 551 C 1606.108154 557.883667 1605.830322 564.646851 1605.1875 571.5 C 1605.082153 572.809021 1605.082153 572.809021 1604.974609 574.144531 C 1604.065063 583.967957 1602.089233 593.185791 1594.6875 600.1875 C 1580.529419 609.735962 1558.242554 608.768738 1542 605.8125 C 1523.223022 601.373901 1507.058716 591.954102 1496.25 575.625 C 1487.387207 560.853638 1483.821045 545.605347 1483.873047 528.483521 C 1483.87146 527.676147 1483.869873 526.868774 1483.868286 526.036987 C 1483.86438 523.358643 1483.867432 520.680298 1483.870605 518.001953 C 1483.869263 516.071228 1483.867432 514.140503 1483.865234 512.209839 C 1483.860718 506.987305 1483.862549 501.764771 1483.865723 496.542297 C 1483.868164 491.076172 1483.865845 485.610046 1483.864258 480.143921 C 1483.862427 470.974487 1483.864868 461.805115 1483.869629 452.635742 C 1483.875122 442.02179 1483.873291 431.407837 1483.867798 420.793945 C 1483.863281 411.682129 1483.862671 402.570313 1483.865234 393.458496 C 1483.866821 388.015381 1483.866943 382.572205 1483.863647 377.129028 C 1483.86084 372.020386 1483.862793 366.911804 1483.868652 361.803162 C 1483.869873 359.92334 1483.869507 358.043518 1483.86731 356.163635 C 1483.864624 353.609253 1483.868042 351.054993 1483.873047 348.50061 C 1483.870728 347.747009 1483.86853 346.993469 1483.866211 346.217041 C 1483.900391 337.334656 1489.515259 339.749329 1497.178711 339.704834 Z"/>
    <path id="path9" fill="#fefdfc" stroke="none" d="M 1542 55.375 C 1543.689575 56.551086 1545.358276 57.757996 1547 59 C 1547.727051 59.545288 1548.454102 60.090576 1549.203125 60.652344 C 1559.989258 69.400635 1567.829224 83.296204 1570 97 C 1571.760498 114.420166 1567.530151 130.36792 1557.109375 144.578125 C 1548.023682 155.548279 1534.249512 164.189453 1520 166 C 1500.479004 167.130127 1484.375122 164.455688 1469.125 151.1875 C 1457.678955 140.140747 1449.979614 125.166138 1449.619141 109.014648 C 1449.669922 91.011475 1455.393433 76.280884 1467.878906 62.992188 C 1488.079834 44.018921 1518.399292 41.07251 1542 55.375 Z"/>
    <path id="path10" fill="#e20613" stroke="none" d="M 1509 20 C 1509 28.580017 1509 37.159973 1509 46 C 1506.359985 46.494995 1503.719971 46.98999 1501 47.5 C 1483.986816 51.092102 1469.896851 59.081177 1460.125 73.75 C 1456.091553 80.113342 1453.754395 86.668945 1452 94 C 1451.810547 94.618774 1451.620972 95.237488 1451.425781 95.875 C 1448.479736 110.578308 1452.20459 126.40271 1460 139 C 1468.637817 151.637817 1480.466431 160.500122 1495.4375 164.3125 C 1501.545044 165.444824 1507.807739 165.665283 1514 166 C 1512.680054 166.330017 1511.359985 166.660034 1510 167 C 1510 211.549988 1510 256.099976 1510 302 C 1507.623413 299.623474 1506.235962 297.971436 1504.574219 295.175781 C 1503.885376 294.023438 1503.885376 294.023438 1503.182617 292.8479 C 1502.689209 292.01123 1502.195801 291.174561 1501.6875 290.3125 C 1501.161865 289.42749 1500.63623 288.54248 1500.094727 287.630615 C 1498.391357 284.756775 1496.695435 281.87854 1495 279 C 1494.172607 277.602966 1494.172607 277.602966 1493.328613 276.177734 C 1410.334839 135.984619 1410.334839 135.984619 1423 85 C 1429.786621 62.120667 1445.194824 42.648621 1466 31 C 1479.595093 23.7771 1493.56665 20 1509 20 Z"/>
    <path id="path11" fill="#070707" stroke="none" d="M 1513 59 C 1513.660034 59.330017 1514.319946 59.659973 1515 60 C 1515.024902 65.407715 1515.042969 70.815369 1515.054932 76.223145 C 1515.059937 78.060059 1515.066772 79.896973 1515.075439 81.733887 C 1515.087646 84.385132 1515.093262 87.036255 1515.097656 89.6875 C 1515.102783 90.499268 1515.108032 91.311096 1515.113281 92.147461 C 1515.11377 97.187378 1514.720947 102.01062 1514 107 C 1515.098267 106.891724 1515.098267 106.891724 1516.21875 106.78125 C 1524.368408 106.082703 1532.510498 105.804871 1540.6875 105.6875 C 1542.282715 105.643005 1542.282715 105.643005 1543.910156 105.597656 C 1544.913086 105.589905 1545.915894 105.582214 1546.949219 105.574219 C 1547.849854 105.559631 1548.750488 105.545044 1549.678467 105.530029 C 1552 106 1552 106 1553.827393 107.862549 C 1555 110 1555 110 1554.8125 112.625 C 1554 115 1554 115 1552 117 C 1549.402466 117.187927 1546.913818 117.255615 1544.316406 117.230469 C 1543.546265 117.22998 1542.776123 117.229553 1541.982666 117.229065 C 1540.345947 117.226074 1538.709229 117.21814 1537.07251 117.205811 C 1534.603516 117.187805 1532.13501 117.185303 1529.666016 117.185547 C 1521.39624 117.166382 1513.22229 116.994751 1505 116 C 1504.974976 115.11853 1504.949829 114.237061 1504.924072 113.328857 C 1504.828003 110.005676 1504.72876 106.682617 1504.627686 103.359619 C 1504.584839 101.931274 1504.543091 100.502869 1504.502686 99.074463 C 1504.286499 91.465515 1503.980103 83.90033 1503.224854 76.321533 C 1502.923828 73.213745 1502.760132 70.121216 1502.6875 67 C 1502.650146 65.92749 1502.612793 64.85498 1502.574219 63.75 C 1503 61 1503 61 1504.824219 59.109375 C 1507.865723 57.558594 1509.762329 58.155396 1513 59 Z"/>
</svg>
