<?xml version="1.0" encoding="UTF-8"?>
<!-- Generated by Pixelmator Pro 3.6.7 -->
<svg width="150" height="65" viewBox="0 0 150 65" xmlns="http://www.w3.org/2000/svg">
    <g id="page-1">
        <g id="snappy-left">
            <path id="Shape" fill="#f47922" fill-rule="evenodd" stroke="none" d="M 71.343559 17.783512 C 71.343559 10.866611 65.786301 5.256451 58.922611 5.256451 L 57.216438 5.256451 C 50.362488 5.256451 44.800362 10.866611 44.800362 17.783512 L 44.800362 36.402168 L 71.343559 36.402168 L 71.343559 17.783512 Z"/>
            <path id="path1" fill="#ffffff" fill-rule="evenodd" stroke="none" d="M 56.889824 16.570107 C 56.889824 19.257286 59.146851 21.433559 61.935226 21.433559 C 64.728477 21.433559 66.985504 19.257286 66.985504 16.570107 C 66.985504 13.882931 64.733353 11.706661 61.940098 11.706661 C 59.151722 11.706661 56.889824 13.882931 56.889824 16.570107"/>
            <path id="path2" fill="#ffffff" fill-rule="evenodd" stroke="none" d="M 49.77264 16.58976 C 49.77264 18.766029 51.60556 20.519821 53.857712 20.519821 C 56.114735 20.519821 57.94278 18.766029 57.94278 16.58976 C 57.94278 14.42823 56.114735 12.659702 53.857712 12.659702 C 51.60556 12.659702 49.777515 14.42823 49.777515 16.58976"/>
            <path id="path3" fill="#231f20" fill-rule="evenodd" stroke="none" d="M 52.619514 17.812988 C 52.619514 18.815155 53.462852 19.630642 54.501183 19.630642 C 55.539509 19.630642 56.382851 18.815155 56.382851 17.812988 C 56.382851 16.815735 55.539509 16.005165 54.501183 16.005165 C 53.462852 16.005165 52.619514 16.815735 52.619514 17.812988 M 61.155258 18.766029 C 61.155258 19.768196 61.993721 20.583683 63.032055 20.583683 C 64.070381 20.583683 64.913719 19.768196 64.913719 18.766029 C 64.913719 17.768776 64.070381 16.958206 63.032055 16.958206 C 61.993721 16.958206 61.155258 17.768776 61.155258 18.775856"/>
            <path id="path4" fill="#ffffff" fill-rule="evenodd" stroke="none" d="M 66.697891 23.408413 C 66.892883 24.724979 66.171417 26.149624 64.811348 26.871773 C 63.456158 27.593922 61.886478 27.392506 60.911518 26.478771 C 61.910851 26.537724 63.075924 26.282265 64.197128 25.69276 C 65.318329 25.093426 66.18116 24.268112 66.693016 23.408413"/>
        </g>
        <path id="wheel" fill="#231f20" fill-rule="evenodd" stroke="none" d="M 118.385231 32.66861 C 117.848999 32.963364 117.249405 32.992844 116.825294 32.66861 C 116.523056 32.422981 116.371941 32.044716 116.376808 31.617321 C 115.79184 31.872772 115.172737 31.862949 114.719391 31.51907 C 114.344025 31.214489 114.163666 30.733055 114.183159 30.192673 C 113.671303 30.34005 113.159462 30.290928 112.779228 29.99617 C 112.340492 29.65229 112.169876 29.072609 112.252747 28.443798 C 111.92614 28.492924 111.609276 28.443798 111.360664 28.247295 C 110.873184 27.869026 110.81469 27.117401 111.155922 26.414906 C 107.967812 24.769192 104.262978 23.830891 100.3144 23.830891 C 96.287834 23.830891 92.514748 24.813404 89.277893 26.518066 C 89.570381 27.186176 89.487511 27.893589 89.024399 28.252205 C 88.780663 28.448711 88.458931 28.497833 88.132309 28.448711 C 88.215187 29.077522 88.044571 29.662117 87.605843 29.99617 C 87.215858 30.290928 86.708878 30.349876 86.201904 30.192673 C 86.221397 30.733055 86.041031 31.224312 85.65593 31.51907 C 85.217194 31.862949 84.593224 31.877686 84.008247 31.617321 C 84.008247 32.049625 83.862007 32.432804 83.550018 32.673523 C 83.179535 32.968277 82.662811 32.968277 82.175331 32.757038 C 81.405113 33.886932 80.761642 35.090508 80.293663 36.367775 L 87.488846 36.367775 C 88.122566 35.434387 88.902527 34.569778 89.828743 33.783764 C 92.427002 31.612408 96.141586 30.187759 100.309525 30.197586 C 104.472588 30.187759 108.187172 31.607494 110.790314 33.783764 C 111.716522 34.569778 112.49649 35.439301 113.130211 36.367775 L 120.325394 36.367775 C 119.837914 35.056122 119.174942 33.81324 118.375473 32.66861"/>
        <g id="snappy-right">
            <path id="path5" fill="#019edb" fill-rule="evenodd" stroke="none" d="M 118.862953 29.770191 C 118.560722 29.539303 118.156113 29.490177 117.756378 29.603161 C 117.853874 28.974354 117.683258 28.384846 117.244522 28.040966 C 116.869171 27.746212 116.367065 27.69709 115.86496 27.844463 C 115.88446 27.318821 115.708969 26.8423 115.328735 26.542633 C 114.904633 26.218399 114.329407 26.198753 113.768806 26.419819 L 113.768806 12.831642 C 113.768806 5.747707 108.0653 0 101.045616 0 L 99.300446 0 C 92.271004 0 86.577263 5.747707 86.577263 12.831642 L 86.577263 26.409988 C 86.026413 26.198753 85.465813 26.223316 85.051453 26.542633 C 84.671219 26.837387 84.495728 27.318821 84.515221 27.844463 C 84.013123 27.69709 83.506149 27.746212 83.130783 28.040966 C 82.692062 28.384846 82.526314 28.974354 82.618935 29.603161 C 82.214325 29.490177 81.814598 29.539303 81.51236 29.775105 C 80.907883 30.256535 80.927383 31.312744 81.551353 32.133141 C 82.185074 32.95845 83.18441 33.238472 83.793755 32.761951 C 84.100868 32.526146 84.247116 32.147881 84.247116 31.730309 C 84.832092 31.975937 85.436554 31.966114 85.87529 31.622234 C 86.255524 31.32748 86.431015 30.85096 86.411514 30.3204 C 86.913612 30.477604 87.420601 30.428478 87.795959 30.13372 C 88.234688 29.799671 88.395554 29.219982 88.312683 28.610828 C 88.634422 28.65995 88.946411 28.601002 89.190147 28.414322 C 89.648369 28.055706 89.726372 27.35812 89.433884 26.69492 C 92.621994 25.01482 96.346329 24.061779 100.3144 24.05687 C 104.204475 24.05687 107.85569 24.980434 110.990173 26.611408 C 110.663567 27.299168 110.726936 28.036053 111.204666 28.409412 C 111.448402 28.605911 111.760391 28.655041 112.08213 28.605911 C 111.994385 29.224899 112.165001 29.804581 112.598854 30.138634 C 112.974213 30.433388 113.476318 30.482517 113.983299 30.33514 C 113.963799 30.860783 114.13929 31.337303 114.519524 31.632057 C 114.958252 31.975937 115.562721 31.990677 116.142822 31.730309 C 116.142822 32.157703 116.28907 32.535973 116.591301 32.771774 C 117.205521 33.248295 118.209732 32.968277 118.83371 32.142967 C 119.46743 31.322563 119.482056 30.266361 118.872704 29.784931"/>
            <path id="path6" fill="#ffffff" fill-rule="evenodd" stroke="none" d="M 102.020576 11.043461 C 102.020576 13.710995 99.875671 15.877438 97.228661 15.877438 C 94.586533 15.877438 92.441628 13.715904 92.441628 11.043461 C 92.441628 8.371025 94.586533 6.209492 97.228661 6.209492 C 99.875671 6.209492 102.020576 8.371025 102.020576 11.043461"/>
            <path id="path7" fill="#ffffff" fill-rule="evenodd" stroke="none" d="M 108.952515 11.072941 C 108.952515 13.234474 107.22197 14.983349 105.08194 14.983349 C 102.937035 14.983349 101.211357 13.229561 101.211357 11.072941 C 101.211357 8.911407 102.94191 7.167442 105.08194 7.167442 C 107.226845 7.167442 108.952515 8.911407 108.952515 11.068027"/>
            <path id="path8" fill="#231f20" fill-rule="evenodd" stroke="none" d="M 106.198265 12.546711 C 106.198265 13.543964 105.398804 14.349625 104.414093 14.349625 C 103.424515 14.349625 102.625053 13.548878 102.625053 12.551624 C 102.625053 11.559284 103.424515 10.753624 104.409218 10.753624 C 105.384171 10.753624 106.188515 11.559284 106.188515 12.551624 M 98.617981 13.263947 C 98.617981 14.25629 97.813637 15.06686 96.833801 15.06686 C 95.844223 15.06686 95.049629 14.25629 95.049629 13.263947 C 95.049629 12.271606 95.844223 11.465942 96.833801 11.465942 C 97.808762 11.465942 98.613098 12.271606 98.613098 13.263947"/>
            <path id="path9" fill="#ffffff" fill-rule="evenodd" stroke="none" d="M 91.998016 17.194004 C 91.803032 18.505661 92.519615 19.920486 93.869934 20.632809 C 95.220253 21.354954 96.785057 21.158451 97.740517 20.249626 C 96.750931 20.308575 95.595612 20.053123 94.484161 19.463612 C 93.372704 18.874104 92.509872 18.053707 91.998016 17.203835"/>
        </g>
        <g id="text">
            <path id="path10" fill="#231f20" fill-rule="evenodd" stroke="none" d="M 131.961502 40.990509 L 136.241562 40.990509 L 136.241562 42.709911 C 136.680298 41.874771 137.479752 40.459953 140.112137 40.459953 L 140.112137 45.087593 L 139.946396 45.087593 C 137.616241 45.087593 136.514557 45.947296 136.514557 48.108826 L 136.514557 56.361954 L 131.956619 56.361954 L 131.956619 40.985596 Z M 49.567898 56.371777 L 45.009975 56.371777 L 45.009975 54.7015 C 44.181263 56.20475 42.289848 56.897423 40.505672 56.897423 C 35.665016 56.897423 32.837639 53.065613 32.837639 48.663948 C 32.837639 43.62365 36.43523 40.459953 40.500801 40.459953 C 42.996689 40.459953 44.400627 41.688095 45.000225 42.621483 L 45.000225 40.990509 L 49.558151 40.990509 L 49.558151 56.366863 Z M 37.405315 48.747463 C 37.405315 50.162285 38.448517 52.598919 41.19302 52.598919 C 42.816322 52.598919 43.801029 51.822731 44.38113 50.879517 C 44.76136 50.270363 44.956352 49.602249 45.014851 48.91449 C 45.063599 48.22673 44.927105 47.529144 44.62487 46.890511 C 44.13739 45.839218 43.08931 44.758453 41.163773 44.758453 C 38.555759 44.758453 37.410187 46.978935 37.410187 48.727814 L 37.410187 48.752373 Z M 110.707443 48.693428 C 109.522865 53.542133 105.345184 56.759869 100.431396 56.759869 C 94.060051 56.759869 89.721497 51.631142 89.721497 46.08976 C 89.721497 40.852959 93.728569 35.478603 100.377777 35.478603 C 106.75399 35.478603 110.156593 40.4403 110.712318 43.648209 L 105.267181 43.648209 C 104.691956 42.125313 103.156403 40.071857 100.353401 40.071857 C 96.867935 40.071857 94.913139 43.147129 94.913139 46.065193 C 94.913139 49.160118 96.999542 52.156788 100.372894 52.156788 C 103.614632 52.156788 104.935692 49.405746 105.262306 48.693428 L 110.70256 48.693428 Z M 79.996307 52.485928 C 77.914772 52.485928 76.228088 50.786179 76.228088 48.688511 C 76.228088 46.60067 77.914772 44.90583 79.991425 44.90583 C 82.06321 44.90583 83.745003 46.60067 83.745003 48.688511 C 83.745003 50.791092 82.06321 52.490841 79.991425 52.490841 M 80.595901 40.464867 C 78.256004 40.464867 76.75457 41.521065 75.769859 42.675522 L 75.769859 40.995422 L 71.480057 40.995422 L 71.480057 61.500504 L 76.047729 61.500504 L 76.047729 54.991344 C 76.593697 55.57103 77.880646 56.907246 80.63002 56.907246 C 84.968582 56.907246 88.039696 53.271942 88.039696 48.835892 C 88.039696 45.259537 86.011787 40.464867 80.600769 40.464867 M 61.179634 52.485928 C 59.107853 52.485928 57.426052 50.786179 57.426052 48.688511 C 57.426052 46.60067 59.107853 44.90583 61.179634 44.90583 C 63.261169 44.90583 64.947838 46.60067 64.947838 48.688511 C 64.947838 50.791092 63.261169 52.490841 61.184509 52.490841 M 61.740234 40.464867 C 59.400337 40.464867 57.889156 41.521065 56.9142 42.675522 L 56.9142 40.995422 L 52.624386 40.995422 L 52.624386 61.500504 L 57.182312 61.500504 L 57.182312 54.991344 C 57.728287 55.57103 59.015228 56.907246 61.764606 56.907246 C 66.103172 56.907246 69.174278 53.271942 69.174278 48.835892 C 69.174278 45.259537 67.14637 40.464867 61.735359 40.464867 M 128.939133 56.371777 L 124.376335 56.371777 L 124.376335 54.7015 C 123.547623 56.20475 121.661087 56.897423 119.872032 56.897423 C 115.045998 56.897423 112.21862 53.065613 112.21862 48.663948 C 112.21862 43.62365 115.806465 40.459953 119.872032 40.459953 C 122.372795 40.459953 123.771858 41.688095 124.376335 42.621483 L 124.376335 40.990509 L 128.939133 40.990509 L 128.939133 56.366863 Z M 116.771667 48.747463 C 116.771667 50.162285 117.814873 52.598919 120.55938 52.598919 C 122.182678 52.598919 123.172264 51.822731 123.752365 50.879517 C 124.142349 50.270363 124.327583 49.602249 124.386086 48.91449 C 124.43483 48.22673 124.298332 47.529144 123.996101 46.890511 C 123.508621 45.839218 122.460548 44.758453 120.535004 44.758453 C 117.926994 44.758453 116.781418 46.978935 116.781418 48.727814 L 116.781418 48.752373 Z M 16.477865 40.990509 L 20.733551 40.990509 L 20.733551 42.621483 C 21.255154 41.874771 22.215487 40.459953 24.935616 40.459953 C 30.073637 40.459953 30.590364 44.674942 30.590364 46.748047 L 30.590364 56.366863 L 26.032442 56.366863 L 26.032442 47.966362 C 26.032442 46.281349 25.676582 44.787926 23.643797 44.787926 C 21.391647 44.787926 21.035789 46.4189 21.035789 48.000751 L 21.035789 56.371777 L 16.477865 56.371777 L 16.477865 40.995422 Z M 5.217114 49.577686 C 5.217114 51.960281 6.679549 52.377853 7.33277 52.377853 C 8.566091 52.377853 9.311933 51.34621 9.311933 50.412827 C 9.311933 49.332058 8.458845 48.998001 5.329234 47.661781 C 3.900922 47.091927 0.356954 45.652542 0.356954 41.796173 C 0.356954 37.669609 4.06179 35.478603 7.474139 35.478603 C 10.272264 35.478603 14.225715 36.922901 14.308586 41.855122 L 9.165689 41.855122 C 9.068193 41.167366 8.897576 39.860619 7.303521 39.860619 C 6.396811 39.860619 5.519351 40.499252 5.519351 41.467033 C 5.519351 42.400417 6.070201 42.655872 9.721415 44.316322 C 13.513996 46.035721 14.474329 47.804245 14.474329 50.191757 C 14.474329 53.463531 12.768155 56.759869 7.381518 56.759869 C 2.053379 56.759869 -0.086651 53.601086 0.049843 49.587513 L 5.217114 49.587513 Z M 144.041214 42.493759 L 144.22644 42.493759 C 144.445816 42.493759 144.61644 42.420067 144.61644 42.248131 C 144.61644 42.086014 144.509201 41.982849 144.260574 41.982849 C 144.163086 41.982849 144.085083 41.982849 144.046082 41.997585 L 144.036346 42.488846 Z M 144.021713 43.446796 L 143.631744 43.446796 L 143.641479 41.737221 C 143.797485 41.717567 144.01683 41.688095 144.294708 41.688095 C 144.61644 41.688095 144.757813 41.737221 144.879684 41.835472 C 144.977173 41.904251 145.045425 42.031975 145.045425 42.194092 C 145.045425 42.400417 144.88942 42.537968 144.68956 42.587097 L 144.68956 42.61657 C 144.860184 42.665695 144.943039 42.803246 144.991791 43.034142 C 145.040543 43.299419 145.089294 43.392761 145.113663 43.456619 L 144.699295 43.456619 C 144.650574 43.387844 144.621323 43.24538 144.567688 43.034142 C 144.538437 42.857285 144.436081 42.773773 144.22644 42.773773 L 144.031464 42.773773 L 144.031464 43.446796 Z M 142.988266 42.552711 C 142.9785 43.314156 143.543976 43.928226 144.304443 43.928226 C 145.03566 43.947876 145.596283 43.338722 145.601135 42.582184 C 145.601135 41.825645 145.055161 41.206661 144.299576 41.196838 C 143.568359 41.196838 142.998001 41.805996 142.993134 42.552711 Z M 146.035004 42.577271 C 146.025238 43.535225 145.255035 44.296669 144.280075 44.281933 C 143.314865 44.281933 142.544662 43.510658 142.554398 42.552711 C 142.554398 41.594757 143.334366 40.848045 144.323944 40.857872 C 145.284286 40.857872 146.039871 41.61932 146.030121 42.577271 Z"/>
        </g>
        <path id="path11" fill="#f47922" fill-rule="evenodd" stroke="none" d="M 61.179634 44.900917 C 59.107853 44.900917 57.426052 46.595757 57.426052 48.683598 C 57.426052 50.786179 59.107853 52.485928 61.179634 52.485928 C 63.261169 52.485928 64.947838 50.786179 64.947838 48.688511 C 64.947838 46.60067 63.261169 44.90583 61.184509 44.90583"/>
        <path id="path12" fill="#019edb" fill-rule="evenodd" stroke="none" d="M 79.996307 44.900917 C 77.914772 44.900917 76.228088 46.595757 76.228088 48.683598 C 76.228088 50.786179 77.914772 52.485928 79.991425 52.485928 C 82.06321 52.485928 83.745003 50.786179 83.745003 48.688511 C 83.745003 46.60067 82.06321 44.90583 79.991425 44.90583"/>
    </g>
</svg>
