<?xml version="1.0" encoding="UTF-8"?>
<!-- Generated by Pixelmator Pro 3.6.7 -->
<svg width="2811" height="590" viewBox="0 0 2811 590" xmlns="http://www.w3.org/2000/svg">
    <path id="Path" fill="#000000" stroke="none" d="M 633.872009 234.190979 L 591.197998 234.190979 L 591.197998 176.945007 L 633.872009 176.945007 C 633.872009 157.169006 635.953979 141.556 639.075989 128.024994 C 643.23999 114.494995 648.44397 104.085999 656.770996 96.799988 C 665.096985 88.473999 675.505981 83.269989 689.036987 80.147003 C 702.567993 77.023987 718.179993 74.942993 736.914978 74.942993 L 758.77301 74.942993 C 766.059021 74.942993 773.344971 75.983032 780.630005 75.983032 L 780.630005 138.434021 C 772.304016 137.393005 763.97699 136.35199 756.690979 136.35199 C 746.28302 136.35199 738.997009 137.393005 732.752014 140.515991 C 726.507019 143.638 723.383972 150.924011 723.383972 163.414001 L 723.383972 176.945007 L 776.46698 176.945007 L 776.46698 234.190979 L 723.383972 234.190979 L 723.383972 447.562988 L 633.872009 447.562988 L 633.872009 234.190979 Z M 794.161011 176.945007 L 880.551025 176.945007 L 880.551025 224.824005 L 881.59198 224.824005 C 887.836975 207.130005 898.244995 194.639008 912.817017 185.272003 C 927.388977 175.903992 944.041992 171.740997 962.776978 171.740997 L 973.185974 171.740997 C 976.307983 171.740997 980.471985 172.781982 983.593994 173.822998 L 983.593994 255.007996 C 977.348999 252.925995 972.14502 251.885986 966.940979 250.845001 C 961.737 249.804016 955.492004 249.804016 950.286987 249.804016 C 938.838013 249.804016 929.471008 251.885986 921.143982 255.007996 C 912.817017 258.131012 905.531006 263.334991 900.327026 269.579987 C 895.122986 275.825012 889.919006 282.070007 887.836975 290.397003 C 884.713989 298.722992 883.674011 306.009003 883.674011 314.335999 L 883.674011 447.563995 L 795.202026 447.563995 L 795.202026 176.945007 L 794.161011 176.945007 Z M 989.840027 312.253998 C 989.840027 292.477997 992.961975 272.701996 1000.25 256.049011 C 1007.530029 238.354004 1016.900024 223.78302 1029.390015 210.252014 C 1041.880005 196.721008 1056.449951 187.352997 1074.150024 180.067017 C 1091.839966 172.781982 1110.579956 168.617981 1131.390015 168.617981 C 1152.209961 168.617981 1170.949951 172.781982 1188.640015 180.067017 C 1206.329956 187.352997 1220.910034 197.761993 1234.439941 210.252014 C 1246.930054 222.742004 1257.339966 238.354004 1263.579956 256.049011 C 1270.869995 273.743011 1273.98999 292.477997 1273.98999 312.253998 C 1273.98999 333.071014 1270.869995 351.806 1263.579956 369.5 C 1256.290039 387.195007 1246.930054 401.765991 1234.439941 414.256012 C 1221.949951 426.746002 1206.329956 437.154999 1188.640015 444.44101 C 1170.949951 451.72699 1152.209961 455.890015 1131.390015 455.890015 C 1110.579956 455.890015 1090.800049 451.72699 1074.150024 444.44101 C 1056.449951 437.154999 1041.880005 426.746002 1029.390015 414.256012 C 1016.900024 401.765991 1007.530029 386.153992 1000.25 369.5 C 992.961975 351.806 989.840027 333.071014 989.840027 312.253998 Z M 1078.310059 312.253998 C 1078.310059 320.580994 1079.349976 329.947998 1081.430054 338.274994 C 1083.52002 347.643005 1086.640015 354.928009 1090.800049 362.213989 C 1094.959961 369.5 1100.170044 375.744995 1107.449951 379.908997 C 1114.73999 384.071991 1123.069946 387.194 1133.47998 387.194 C 1143.880005 387.194 1152.209961 385.113007 1159.5 379.908997 C 1166.780029 375.744995 1171.98999 369.5 1176.150024 362.213989 C 1180.310059 354.928009 1183.439941 346.60199 1185.52002 338.274994 C 1187.599976 328.907013 1188.640015 320.580994 1188.640015 312.253998 C 1188.640015 303.927002 1187.599976 294.559998 1185.52002 286.233002 C 1183.439941 276.86499 1180.310059 269.579987 1176.150024 262.294006 C 1171.98999 255.007996 1166.780029 248.763 1159.5 244.598999 C 1152.209961 239.39502 1143.880005 237.313995 1133.47998 237.313995 C 1123.069946 237.313995 1114.73999 239.39502 1107.449951 244.598999 C 1100.170044 249.804016 1094.959961 255.007996 1090.800049 262.294006 C 1086.640015 269.579987 1083.52002 277.906006 1081.430054 286.233002 C 1079.349976 295.601013 1078.310059 303.927002 1078.310059 312.253998 Z M 1306.25 176.945007 L 1392.640015 176.945007 L 1392.640015 214.414978 L 1393.680054 214.414978 C 1397.849976 207.128998 1403.050049 200.884003 1409.300049 195.679993 C 1415.540039 190.476013 1422.829956 185.272003 1430.109985 181.108002 C 1437.400024 176.945007 1445.72998 173.822021 1454.050049 171.740997 C 1462.380005 169.658997 1470.709961 168.617981 1479.030029 168.617981 C 1501.930054 168.617981 1519.630005 172.781982 1532.119995 180.067017 C 1545.650024 187.352997 1555.01001 196.721008 1561.26001 207.128998 C 1567.5 217.537994 1571.670044 228.987 1573.75 241.47699 C 1575.829956 253.96698 1575.829956 264.375 1575.829956 274.783997 L 1575.829956 447.562988 L 1487.359985 447.562988 L 1487.359985 289.355988 C 1487.359985 279.988007 1486.319946 272.701996 1483.199951 265.415985 C 1480.069946 258.130005 1475.910034 252.925995 1469.670044 248.763 C 1463.420044 244.598999 1454.050049 242.518005 1442.599976 242.518005 C 1434.280029 242.518005 1426.98999 244.598999 1420.75 247.721985 C 1414.5 250.843994 1409.300049 255.007996 1406.170044 261.252991 C 1402.01001 266.457001 1399.930054 272.701996 1397.849976 279.988007 C 1395.77002 287.273987 1394.72998 294.559998 1394.72998 301.846008 L 1394.72998 447.562988 L 1306.25 447.562988 L 1306.25 176.945007 Z M 1780.880005 234.190002 L 1725.709961 234.190002 L 1725.709961 357.009003 C 1725.709961 367.416992 1728.829956 374.703003 1734.040039 377.825989 C 1740.280029 380.947998 1747.569946 383.029999 1756.939941 383.029999 C 1761.099976 383.029999 1764.219971 383.029999 1768.390015 381.989014 L 1779.839966 381.989014 L 1779.839966 447.562012 C 1771.51001 447.562012 1764.219971 448.602997 1755.900024 449.644012 C 1747.569946 450.68399 1739.23999 450.684998 1731.959961 450.684998 C 1713.219971 450.684998 1697.609985 448.602997 1685.119995 445.480011 C 1672.630005 442.358002 1663.26001 437.153992 1655.97998 429.868011 C 1648.689941 422.582001 1643.48999 413.213989 1641.400024 400.723999 C 1638.280029 388.234009 1637.23999 373.661987 1637.23999 354.927002 L 1637.23999 234.190002 L 1592.47998 234.190002 L 1592.47998 176.944 L 1637.23999 176.944 L 1637.23999 94.71701 L 1725.709961 94.71701 L 1725.709961 176.944 L 1780.880005 176.944 L 1780.880005 234.190002 Z M 1902.660034 143.639008 L 1814.180054 143.639008 L 1814.180054 75.984009 L 1902.660034 75.984009 L 1902.660034 143.639008 Z M 1813.140015 176.945984 L 1901.619995 176.945984 L 1901.619995 447.563995 L 1813.140015 447.563995 L 1813.140015 176.945984 Z M 2024.430054 334.110992 C 2025.469971 352.846008 2030.680054 367.417999 2041.089966 378.867004 C 2051.48999 390.31601 2066.070068 395.519989 2084.800049 395.519989 C 2095.209961 395.519989 2105.620117 393.438995 2114.98999 388.234009 C 2124.350098 383.029999 2131.639893 375.743988 2135.800049 365.335999 L 2219.070068 365.335999 C 2214.909912 380.949005 2208.659912 394.480011 2199.290039 405.928986 C 2189.929932 417.377991 2179.52002 426.746002 2168.070068 434.031006 C 2155.580078 441.316986 2143.090088 446.522003 2128.52002 450.684998 C 2113.949951 453.807007 2099.370117 455.889008 2084.800049 455.889008 C 2062.939941 455.889008 2043.170044 452.766998 2024.430054 446.522003 C 2005.699951 440.276001 1990.089966 430.908997 1977.599976 418.419006 C 1965.109985 405.928986 1954.699951 391.356995 1947.410034 372.622009 C 1940.130005 354.928009 1937 334.110992 1937 312.252991 C 1937 291.436005 1941.170044 272.700989 1948.449951 255.007019 C 1955.73999 237.312988 1966.150024 222.740997 1979.680054 210.251007 C 1993.209961 197.760986 2008.819946 188.393005 2026.51001 181.106995 C 2044.209961 173.820984 2062.939941 170.699005 2082.719971 170.699005 C 2106.659912 170.699005 2128.52002 174.862 2146.209961 183.188995 C 2163.909912 191.515991 2179.52002 202.964996 2190.969971 218.578003 C 2202.419922 234.190002 2211.780029 250.843994 2216.98999 270.619995 C 2222.189941 290.395996 2225.320068 312.252991 2224.27002 335.152008 L 2024.430054 335.152008 L 2024.430054 334.110992 Z M 2134.76001 284.149994 C 2133.719971 268.537994 2128.52002 256.048004 2119.149902 244.598999 C 2109.780029 234.190002 2097.290039 227.945007 2081.679932 227.945007 C 2066.070068 227.945007 2053.580078 233.148987 2043.170044 243.557983 C 2032.76001 253.966003 2026.51001 267.497009 2024.430054 284.149994 L 2134.76001 284.149994 Z M 2254.459961 176.945007 L 2340.850098 176.945007 L 2340.850098 224.824005 L 2341.889893 224.824005 C 2348.139893 207.130005 2358.540039 194.639008 2373.120117 185.272003 C 2387.689941 175.903992 2404.340088 171.740997 2423.080078 171.740997 L 2433.47998 171.740997 C 2436.610107 171.740997 2440.77002 172.781982 2443.889893 173.822998 L 2443.889893 255.007996 C 2437.649902 252.925995 2432.439941 251.885986 2427.23999 250.845001 C 2422.030029 249.804016 2415.790039 249.804016 2410.590088 249.804016 C 2399.139893 249.804016 2389.77002 251.885986 2381.439941 255.007996 C 2373.120117 258.131012 2365.830078 263.334991 2360.629883 269.579987 C 2354.379883 275.825012 2350.219971 282.070007 2348.139893 290.397003 C 2345.01001 298.722992 2343.969971 306.009003 2343.969971 314.335999 L 2343.969971 447.563995 L 2255.5 447.563995 L 2255.5 176.945007 L 2254.459961 176.945007 Z M 2534.449951 359.091003 C 2534.449951 366.377014 2535.48999 371.580994 2538.610107 376.785004 C 2541.72998 381.989014 2544.850098 386.153015 2549.02002 389.274994 C 2553.179932 392.39801 2558.379883 394.479004 2563.590088 396.561005 C 2569.830078 398.643005 2575.040039 398.643005 2581.280029 398.643005 C 2585.449951 398.643005 2589.610107 398.643005 2594.810059 396.561005 C 2600.02002 395.519989 2604.179932 393.437988 2608.340088 391.356995 C 2612.51001 389.274994 2615.629883 386.153015 2618.75 381.989014 C 2621.879883 377.825989 2622.919922 373.661987 2622.919922 368.458008 C 2622.919922 363.253998 2620.830078 359.091003 2617.709961 355.967987 C 2614.590088 352.846008 2610.429932 349.722992 2606.26001 347.640991 C 2602.100098 345.559998 2596.899902 343.477997 2591.689941 342.437012 C 2586.48999 341.395996 2582.320068 340.355988 2578.159912 339.315002 C 2564.629883 336.191986 2550.060059 333.070007 2535.48999 329.946991 C 2520.909912 326.825012 2507.379883 322.661011 2494.889893 317.457001 C 2482.399902 311.212006 2471.98999 303.925995 2464.709961 293.518005 C 2456.379883 283.109009 2453.26001 269.578003 2453.26001 250.843018 C 2453.26001 234.190002 2457.419922 220.658997 2464.709961 210.251007 C 2473.040039 199.84198 2482.399902 191.515015 2494.889893 185.27002 C 2507.379883 179.024994 2520.909912 174.862 2535.48999 171.73999 C 2550.060059 168.617004 2563.590088 167.575989 2577.120117 167.575989 C 2591.689941 167.575989 2606.26001 168.617004 2620.830078 171.73999 C 2635.409912 173.820984 2647.899902 179.024994 2660.389893 185.27002 C 2672.879883 191.515015 2682.23999 200.882996 2689.530029 212.332001 C 2696.820068 223.781982 2700.97998 238.352997 2702.02002 256.048004 L 2619.790039 256.048004 C 2619.790039 245.639008 2615.629883 237.312012 2608.340088 232.108002 C 2601.060059 227.945007 2591.689941 224.822021 2580.23999 224.822021 C 2576.080078 224.822021 2571.919922 224.822021 2567.75 225.863007 C 2563.590088 226.903992 2559.429932 226.903992 2555.26001 227.945007 C 2551.100098 228.985992 2547.97998 231.067017 2545.889893 234.190002 C 2543.810059 237.312012 2541.72998 240.434998 2541.72998 245.639008 C 2541.72998 251.884003 2544.850098 257.088013 2552.139893 261.252014 C 2558.379883 265.415009 2566.709961 268.537994 2577.120117 271.660004 C 2587.530029 273.742004 2597.939941 276.864014 2609.389893 278.946014 C 2620.830078 281.028015 2632.280029 283.109009 2642.689941 285.19101 C 2656.219971 288.313995 2667.669922 292.47699 2676 298.721985 C 2685.370117 304.96701 2691.610107 311.212006 2696.820068 318.497986 C 2702.02002 325.783997 2706.179932 333.070007 2708.27002 340.355988 C 2710.350098 347.640991 2711.389893 353.885986 2711.389893 360.131989 C 2711.389893 377.825989 2707.219971 393.437988 2699.939941 405.928009 C 2691.610107 418.419006 2682.23999 427.786011 2669.75 436.113007 C 2657.26001 443.398987 2643.72998 448.602997 2628.120117 452.765991 C 2612.51001 455.889008 2596.899902 457.970001 2582.320068 457.970001 C 2566.709961 457.970001 2550.060059 456.929993 2534.449951 453.807007 C 2518.830078 450.684998 2505.300049 445.480011 2492.810059 438.195007 C 2480.314697 430.90506 2469.917969 420.5065 2462.629883 408.01001 C 2454.300049 395.519989 2450.139893 379.90799 2450.139893 361.171997 L 2534.449951 361.171997 L 2534.449951 359.091003 Z"/>
    <path id="path1" fill="#8bc53f" stroke="none" d="M 0 481.911011 L 0 281.028015 L 187.350998 222.740997 L 187.350998 423.622986 L 0 481.911011 Z"/>
    <path id="path2" fill="#ebd417" stroke="none" d="M 187.350998 423.622986 L 187.350998 222.740997 L 314.334015 310.171997 L 314.334015 511.053986 L 187.350998 423.622986 Z"/>
    <path id="path3" fill="#034ea1" stroke="none" d="M 126.982002 569.341003 L 0 481.911011 L 187.350998 423.623993 L 314.334015 511.053986 L 126.982002 569.341003 Z"/>
    <path id="path4" fill="#712e74" stroke="none" d="M 183.188004 212.330994 L 234.188995 95.757019 L 299.761993 250.84198 L 248.761002 367.415985 L 183.188004 212.330994 Z"/>
    <path id="path5" fill="#009fd1" stroke="none" d="M 248.761002 367.415009 L 299.761993 250.841003 L 471.501007 222.739014 L 421.540985 338.272003 L 248.761002 367.415009 Z"/>
    <path id="path6" fill="#f6921e" stroke="none" d="M 299.761993 250.84198 L 234.188995 95.757019 L 405.928009 67.653992 L 471.501007 222.739014 L 299.761993 250.84198 Z"/>
    <path id="path7" fill="#da2128" stroke="none" d="M 187.352005 222.740997 L 59.327999 198.802002 L 44.757 71.81897 L 172.779999 95.76001 L 187.352005 222.742004 Z"/>
    <path id="path8" fill="#25bcbd" stroke="none" d="M 172.779999 95.757996 L 44.757 71.817993 L 115.533997 1.041992 L 243.557007 24.981995 L 172.779999 95.757996 Z"/>
    <path id="path9" fill="#00844a" stroke="none" d="M 258.128998 153.005005 L 187.352005 222.740997 L 172.781006 95.759003 L 243.557999 24.981018 L 258.128998 153.005005 Z"/>
</svg>
