<?xml version="1.0" encoding="UTF-8"?>
<!-- Generated by Pixelmator Pro 3.6.7 -->
<svg width="3000" height="850" viewBox="0 0 3000 850" xmlns="http://www.w3.org/2000/svg">
    <path id="Path" fill="#e20612" stroke="none" d="M 1268 272 C 1287.702759 286.602356 1293.380981 307.700134 1297 330.8125 C 1298.675293 342.426453 1299.861694 354.071289 1300.9375 365.753906 C 1301.023315 366.680176 1301.109253 367.606384 1301.197754 368.56073 C 1303.063721 388.789368 1304.506104 409.039307 1305.817627 429.310547 C 1306.004028 432.186646 1306.192139 435.062622 1306.380615 437.938599 C 1307.276855 451.624268 1308.148071 465.311462 1309 479 C 1309.05603 479.898865 1309.111938 480.797729 1309.169678 481.723816 C 1314.656006 569.962769 1314.656006 569.962769 1312 605 C 1307.823242 605.075317 1303.646729 605.12915 1299.469482 605.164795 C 1298.054688 605.179688 1296.640015 605.200012 1295.225342 605.226318 C 1278.552856 605.528198 1264.692383 603.162964 1252.269531 591.484375 C 1242.973145 581.307861 1242.755249 567.763428 1242.359375 554.671875 C 1242.286621 552.671387 1242.213867 550.670776 1242.140015 548.670349 C 1242.061279 546.522705 1241.985718 544.374878 1241.9104 542.227112 C 1240.856812 512.487671 1239.14856 482.808899 1237.0625 453.125 C 1236.997437 452.197449 1236.932251 451.269897 1236.865112 450.31427 C 1235.253662 427.430298 1233.570068 404.550964 1231.6875 381.6875 C 1231.565918 380.200012 1231.565918 380.200012 1231.441895 378.682434 C 1231.220581 376.000061 1230.99292 373.318298 1230.761719 370.636719 C 1230.698486 369.873657 1230.635254 369.110535 1230.569946 368.324341 C 1230.271729 364.537964 1230.271729 364.537964 1229 361 C 1221.393555 379.55835 1214.731323 398.302612 1208.504883 417.361755 C 1206.421143 423.735596 1204.304565 430.098083 1202.175781 436.457031 C 1201.846313 437.44165 1201.516724 438.426331 1201.177246 439.440796 C 1200.501465 441.460266 1199.825562 443.479675 1199.149658 445.499146 C 1193.941528 461.069458 1188.793335 476.65741 1183.736572 492.277588 C 1179.070679 506.682556 1174.363403 521.073486 1169.516724 535.418701 C 1168.936401 537.139282 1168.358887 538.86084 1167.784668 540.583496 C 1164.080444 551.680481 1159.817505 562.354858 1154.924438 572.980835 C 1153.5802 575.917114 1152.286011 578.874939 1150.988281 581.832031 C 1150.097168 583.825867 1149.205322 585.819336 1148.3125 587.8125 C 1147.865845 588.834106 1147.419189 589.855652 1146.958984 590.908203 C 1144.58252 596.182129 1142.578735 600.377991 1138 604 C 1126.564697 607.811768 1110.848022 605.504517 1100.113281 600.710938 C 1076.95874 588.896729 1068.932617 564.477417 1060.875 541.4375 C 1060.192383 539.50293 1059.509644 537.568481 1058.82666 535.634033 C 1051.924438 516.016052 1045.296265 496.303772 1038.644531 476.599854 C 1025.674438 438.182312 1011.997314 400.055359 998 362 C 997.670044 362 997.339966 362 997 362 C 993.240723 392.278625 990.175415 422.565186 988 453 C 987.89624 454.444153 987.89624 454.444153 987.790344 455.91748 C 984.24408 505.855896 983.38092 555.966675 982 606 C 978.626404 605.848816 975.253052 605.693909 971.879639 605.53833 C 970.928955 605.495789 969.978271 605.453247 968.998718 605.409363 C 962.721191 605.117493 956.521484 604.694092 950.3125 603.6875 C 949.486328 603.554932 948.660278 603.422241 947.809082 603.285645 C 936.486084 601.348877 928.832886 597.693665 921 589 C 919.24469 586.428711 917.999084 583.942932 917 581 C 916.661377 580.061951 916.322754 579.123901 915.973877 578.157471 C 914.427307 572.662842 914.695557 567.027588 914.699219 561.363281 C 914.693604 560.117249 914.687927 558.871216 914.682129 557.587402 C 914.670044 553.495605 914.676392 549.404236 914.6875 545.3125 C 914.689697 543.885254 914.691895 542.458069 914.694031 541.030884 C 914.858765 461.263123 924.107422 381.475037 934.853149 302.52832 C 935.18573 300.075684 935.514771 297.622559 935.842896 295.169312 C 936.360779 291.304871 936.890747 287.442261 937.429932 283.58075 C 937.628296 282.147827 937.822937 280.714417 938.013489 279.280457 C 938.277222 277.302795 938.55658 275.327209 938.83667 273.351807 C 938.989563 272.240662 939.142456 271.129578 939.299927 269.984741 C 940.046997 266.799683 941.099915 264.650696 943 262 C 956.517639 255.24115 983.65564 262.37085 997.38916 266.892578 C 1018.75946 274.440857 1036.688354 288.21698 1046.953857 308.734619 C 1053.350952 322.587219 1058.011597 337.21698 1063.009155 351.610352 C 1064.165405 354.937744 1065.325562 358.263794 1066.485596 361.589844 C 1066.720215 362.262451 1066.954834 362.935059 1067.196533 363.628113 C 1067.672974 364.994263 1068.149414 366.360474 1068.625977 367.726685 C 1069.345581 369.790405 1070.064819 371.854309 1070.783936 373.918213 C 1075.001099 386.019836 1079.257813 398.107361 1083.521362 410.192749 C 1087.02356 420.125183 1090.513184 430.062073 1094 440 C 1094.408203 441.162964 1094.816284 442.325928 1095.236816 443.52417 C 1097.730347 450.632874 1100.216187 457.744141 1102.692993 464.858643 C 1103.466309 467.077271 1104.241455 469.295227 1105.018677 471.512451 C 1109.476563 484.235596 1113.601196 496.950989 1117 510 C 1124.582642 487.415405 1132.052612 464.793457 1139.497314 442.163025 C 1140.252075 439.868713 1141.007202 437.574463 1141.762329 435.280273 C 1147.864136 416.737305 1153.877319 398.170898 1159.761963 379.557739 C 1170.632935 345.228638 1182.080566 309.752441 1203 280 C 1203.411987 279.402832 1203.824097 278.805664 1204.248535 278.19043 C 1209.466553 270.7052 1214.87085 263.598206 1223.757813 260.359375 C 1238.836548 257.942566 1255.460571 263.941223 1268 272 Z"/>
    <path id="path1" fill="#000000" stroke="none" d="M 1866.5 277.875 C 1871.644409 282.390991 1875.546997 287.102966 1879 293 C 1879.470459 293.790222 1879.94104 294.580383 1880.425781 295.394531 C 1887.366699 308.06842 1887.40332 321.281433 1887.1875 335.3125 C 1887.172363 337.035767 1887.158691 338.759094 1887.146484 340.482422 C 1887.11377 344.655273 1887.062256 348.827515 1887 353 C 1885.515015 353.494995 1885.515015 353.494995 1884 354 C 1883.296143 353.238159 1882.592285 352.476318 1881.867188 351.691406 C 1859.245605 327.791077 1826.285034 318.179749 1794.007813 317.035156 C 1764.48584 316.488892 1736.893188 326.553284 1715.243408 346.715576 C 1692.735718 368.53363 1685.402832 397.744202 1684.8125 428.125 C 1685.14856 455.618896 1690.415405 484.397949 1707 507 C 1707.603271 507.835327 1708.206543 508.670654 1708.828125 509.53125 C 1717.431274 520.862183 1727.508301 528.559204 1740 535 C 1740.857178 535.471802 1741.714478 535.943604 1742.597656 536.429688 C 1770.431396 550.633301 1807.635986 549.185059 1836.625 539.8125 C 1853.980957 533.887817 1869.283447 524.862244 1884 514 C 1890.397949 527.908508 1888.888184 542.822998 1884 557 C 1880.822266 564.884888 1876.599243 571.623108 1871 578 C 1870.417358 578.676758 1869.834717 579.353516 1869.234375 580.050781 C 1850.118408 600.73291 1818.55835 606.872986 1791.712402 608.10498 C 1748.321655 609.633301 1703.813232 597.032227 1671.5 567.1875 C 1670.582153 566.314819 1669.664307 565.442139 1668.71875 564.542969 C 1666.796631 562.745178 1664.889648 561.057495 1662.859375 559.394531 C 1633.307617 534.646912 1618.096069 492.594666 1614.75 455.3125 C 1610.750854 404.546387 1622.106567 353.371033 1655.523438 313.949219 C 1684.49646 280.645874 1722.407715 262.438416 1766 257 C 1766.758179 256.904297 1767.516235 256.808594 1768.297363 256.709961 C 1801.413452 252.947205 1839.667725 256.132141 1866.5 277.875 Z"/>
    <path id="path2" fill="#e20512" stroke="none" d="M 1345 333 C 1396.937012 332.231628 1396.937012 332.231628 1409.964844 344.753906 C 1415.154785 350.481812 1417.974854 356.259583 1419.914063 363.730469 C 1420.167358 364.703857 1420.167358 364.703857 1420.425781 365.69696 C 1421.881348 371.365784 1423.185669 377.067627 1424.476807 382.775757 C 1435.035767 429.444763 1450.480713 476.14209 1474 518 C 1475.561279 514.141113 1477.103516 510.275146 1478.632568 506.40332 C 1479.14856 505.103027 1479.668701 503.804321 1480.194092 502.507813 C 1490.467529 477.120605 1496.961426 450.207703 1503.959351 423.775818 C 1505.163574 419.231812 1506.375122 414.689697 1507.585327 410.147217 C 1508.577148 406.422974 1509.566895 402.698181 1510.55188 398.972168 C 1512.253906 392.537476 1513.962769 386.10553 1515.7323 379.688965 C 1516.473511 377.000549 1517.208008 374.310303 1517.942505 371.620056 C 1518.441406 369.804199 1518.950439 367.991211 1519.460083 366.178345 C 1521.442017 358.906372 1522.651733 351.865723 1523.393799 344.384888 C 1524.043335 340.757874 1525.112183 338.153687 1527 335 C 1530.610352 332.878784 1533.875732 332.743408 1538.007813 332.734375 C 1539.160278 332.731812 1540.312622 332.729248 1541.5 332.726563 C 1543.294434 332.738159 1543.294434 332.738159 1545.125 332.75 C 1546.298096 332.742249 1547.471069 332.734558 1548.679688 332.726563 C 1560.169434 332.752075 1571.642944 333.341858 1580.5625 341.414063 C 1585.963257 347.425659 1587.540283 353.615967 1587.425781 361.414063 C 1587.418335 362.199219 1587.410889 362.984375 1587.403198 363.793335 C 1587.184692 371.991211 1585.398682 379.517883 1583.1875 387.375 C 1582.7771 388.891724 1582.367676 390.408752 1581.959473 391.926025 C 1580.681396 396.629517 1579.348511 401.316284 1578 406 C 1577.789673 406.733398 1577.579346 407.466858 1577.362793 408.222473 C 1554.426147 487.996948 1525.518921 580.571045 1472 655 C 1471.240723 655.980957 1470.481445 656.961914 1469.699219 657.972656 C 1455.991577 675.184082 1440.013306 687.818481 1418 692 C 1413.821411 692.385254 1409.693848 692.421875 1405.5 692.375 C 1404.46228 692.386597 1403.424561 692.398193 1402.355469 692.410156 C 1388.580078 692.358704 1375.884521 688.760254 1365.625 679.25 C 1357.065308 670.076416 1354.658325 659.255737 1354.875 647.0625 C 1354.884033 646.092468 1354.893066 645.122437 1354.902344 644.123047 C 1354.925781 641.748413 1354.958496 639.37439 1355 637 C 1356.744263 636.813232 1358.488525 636.626953 1360.23291 636.441895 C 1361.860352 636.268799 1363.487671 636.093933 1365.114746 635.91748 C 1370.61377 635.329224 1376.114624 634.810669 1381.625 634.339844 C 1383.62793 634.161499 1385.630737 633.981323 1387.633545 633.800171 C 1389.588867 633.628174 1391.545654 633.472534 1393.502441 633.317139 C 1404.319946 632.327881 1414.55249 629.501038 1421.777344 620.878906 C 1430.100586 609.49585 1436.329956 597.345825 1435 583 C 1432.696533 572.773071 1427.417603 563.599243 1422.580322 554.401917 C 1420.192627 549.855713 1417.839966 545.291504 1415.488281 540.726563 C 1415.017334 539.812744 1414.546265 538.898926 1414.061035 537.957397 C 1402.861694 516.156494 1392.841675 493.862183 1384 471 C 1383.589722 469.941345 1383.179565 468.88269 1382.756836 467.791992 C 1368.471069 430.658203 1357.119873 392.865295 1347.875 354.1875 C 1347.579346 352.966248 1347.283813 351.745056 1346.979248 350.486816 C 1345.591919 344.511475 1344.652832 339.13562 1345 333 Z"/>
    <path id="path3" fill="#000000" stroke="none" d="M 2335.085938 343.1875 C 2345.388672 352.943604 2348.031006 366.245667 2350.8125 379.625 C 2360.219727 423.00061 2374.9375 464.112122 2393.733398 504.277344 C 2395.854492 508.836853 2397.927246 513.418274 2400 518 C 2423.405518 473.341125 2435.773193 419.730591 2446.125 370.6875 C 2446.317871 369.778748 2446.510742 368.869995 2446.709473 367.933716 C 2449.477295 354.789734 2449.477295 354.789734 2450.624512 341.421143 C 2451.094971 338.387756 2452.230713 336.486633 2454 334 C 2458.214355 331.892822 2463.729004 332.814148 2468.364014 332.814697 C 2470.398438 332.812561 2472.432373 332.794495 2474.466797 332.775391 C 2486.375977 332.757813 2498.279297 333.012634 2507.5625 341.414063 C 2512.96875 347.431763 2514.538818 353.620972 2514.421875 361.425781 C 2514.414307 362.211548 2514.406494 362.997375 2514.398682 363.806946 C 2514.182373 371.936646 2512.439941 379.394104 2510.25 387.1875 C 2509.84375 388.692017 2509.438477 390.196838 2509.03418 391.701904 C 2494.216553 446.256653 2475.343018 500.078125 2453 552 C 2452.52002 553.11554 2452.040039 554.231079 2451.54541 555.380371 C 2418.050537 632.774902 2418.050537 632.774902 2394 661 C 2393.31543 661.818542 2392.631104 662.637085 2391.925781 663.480469 C 2384.114502 672.525879 2375.645996 680.000366 2365 685.4375 C 2364.384277 685.755371 2363.768799 686.073364 2363.134521 686.400879 C 2353.314941 691.130615 2343.299561 692.495728 2332.5 692.375 C 2331.462402 692.386597 2330.424561 692.398193 2329.355469 692.410156 C 2315.580078 692.358704 2302.884521 688.760254 2292.625 679.25 C 2283.920898 669.903748 2281.641357 658.86853 2281.875 646.5 C 2281.884033 645.582153 2281.893066 644.664368 2281.902344 643.71875 C 2281.925781 641.478882 2281.958496 639.239624 2282 637 C 2290.897949 635.552124 2299.616943 634.840271 2308.625 634.5625 C 2320.727295 634.135559 2331.769775 633.106567 2342 626 C 2342.675537 625.530762 2343.35083 625.061523 2344.046875 624.578125 C 2354.138184 616.677124 2360.812988 603.595825 2362.375 590.96875 C 2362.924805 577.635803 2355.780029 566.292297 2349.780029 554.819885 C 2347.499023 550.453857 2345.244873 546.073975 2342.988281 541.695313 C 2342.326416 540.412292 2342.326416 540.412292 2341.650879 539.103394 C 2310.763916 479.178711 2288.804199 414.823425 2273.691406 349.210938 C 2273.519531 348.486633 2273.347656 347.762268 2273.170654 347.015991 C 2272.163818 342.542114 2271.839111 338.547974 2272 334 C 2292.531494 331.292786 2317.97876 329.556213 2335.085938 343.1875 Z"/>
    <path id="path4" fill="#000000" stroke="none" d="M 818.023438 353.53125 C 821.113464 356.259277 824.065308 359.105591 827 362 C 827.805664 362.792786 828.611328 363.585571 829.441406 364.402344 C 848.709839 384.541992 854.515442 410.980225 856.097168 437.966553 C 856.139832 438.676331 856.182434 439.386108 856.226379 440.117432 C 857.190063 456.489014 857.263733 472.836792 857.202759 489.231506 C 857.189941 493.29126 857.189087 497.351013 857.186768 501.410767 C 857.180603 509.038269 857.164307 516.665771 857.144043 524.293274 C 857.121399 533.002441 857.110596 541.711609 857.100647 550.420776 C 857.079956 568.280579 857.044983 586.140259 857 604 C 847.065979 608.96698 828.289734 604.878296 818 602 C 806.71228 598.062439 797.642395 589.446045 792 579 C 788.599915 571.762634 788.847168 564.121399 788.826416 556.289063 C 788.819702 555.232605 788.813049 554.176086 788.806152 553.087646 C 788.792114 550.798706 788.780212 548.509827 788.770203 546.220947 C 788.753662 542.576294 788.730408 538.931702 788.705322 535.287109 C 788.634888 524.925537 788.57489 514.563843 788.523193 504.202148 C 788.491028 497.852661 788.449646 491.503357 788.403015 485.153992 C 788.387207 482.75592 788.374756 480.357849 788.366089 477.959778 C 788.322449 466.055054 788.099915 454.225952 787.085693 442.359375 C 787.006592 441.433411 786.92749 440.507385 786.845947 439.553345 C 785.455627 424.877563 781.602966 410.208984 770.457031 399.851563 C 757.512207 390.096619 742.625183 387.3526 726.707031 389.429688 C 716.231262 391.457275 706.326111 396.067017 699.589844 404.582031 C 688.825256 420.953796 686.867371 437.7052 686.794678 456.871094 C 686.785095 458.478149 686.775085 460.085205 686.764709 461.692322 C 686.737732 466.036743 686.716675 470.381165 686.696655 474.725586 C 686.674744 479.272644 686.6474 483.819702 686.620605 488.366699 C 686.570801 496.968933 686.525818 505.571228 686.482605 514.173523 C 686.433167 523.970398 686.378235 533.767212 686.322937 543.564087 C 686.20929 563.709351 686.102417 583.854675 686 604 C 681.401123 605.532959 676.817078 605.184448 672 605.1875 C 671.008728 605.199768 670.017456 605.211975 668.996094 605.224609 C 653.978149 605.253967 639.780212 601.64978 628.675781 590.925781 C 619.071655 579.888855 617.537842 566.82251 617.611816 552.648438 C 617.606567 551.383057 617.601318 550.117676 617.595886 548.813904 C 617.582336 545.38147 617.587463 541.949341 617.597046 538.516846 C 617.604736 534.889893 617.597534 531.262939 617.592896 527.635986 C 617.587463 521.540344 617.594543 515.444763 617.608887 509.349121 C 617.625183 502.359497 617.619995 495.370117 617.603394 488.380493 C 617.589661 482.329834 617.587952 476.279175 617.595703 470.228516 C 617.600342 466.636963 617.601196 463.045593 617.591125 459.454041 C 617.496948 420.494873 623.340088 388.665955 650.8125 359.75 C 693.711487 318.539978 772.259766 315.217468 818.023438 353.53125 Z"/>
    <path id="path5" fill="#be1522" stroke="none" d="M 2014.425781 37.578125 C 2033.499146 53.020447 2045.980835 73.667847 2049.75 98.0625 C 2049.83252 99.361877 2049.915039 100.661255 2050 102 C 2050.063232 102.97583 2050.126465 103.95166 2050.191406 104.957031 C 2051.941895 154.362915 2014.439087 210.670532 1990.73584 251.974121 C 1988.918457 255.142212 1987.109619 258.315186 1985.300781 261.488281 C 1977.477539 275.170349 1969.406128 288.667969 1961 302 C 1957.425293 300.808472 1957.178833 300.099609 1955.355469 296.933594 C 1954.851074 296.068542 1954.346558 295.203491 1953.826904 294.312256 C 1953.285889 293.363586 1952.744873 292.414917 1952.1875 291.4375 C 1951.328613 289.955505 1951.328613 289.955505 1950.452393 288.443604 C 1949.238403 286.34845 1948.027832 284.251282 1946.820313 282.152344 C 1945.094849 279.164246 1943.349243 276.18927 1941.59375 273.21875 C 1860.415161 135.66156 1860.415161 135.66156 1873 85 C 1879.786621 62.120667 1895.194824 42.648621 1916 31 C 1946.886963 14.590027 1986.206665 15.694885 2014.425781 37.578125 Z"/>
    <path id="path6" fill="#000000" stroke="none" d="M 2161 272 C 2161 292.130005 2161 312.26001 2161 333 C 2192.350098 333 2223.699951 333 2256 333 C 2256 372.719116 2256 372.719116 2247.070313 383.03125 C 2236.366699 393.209778 2222.841553 394.439453 2208.703125 394.511719 C 2206.730957 394.538635 2206.730957 394.538635 2204.718994 394.566101 C 2201.266846 394.613098 2197.814697 394.64325 2194.362305 394.669556 C 2190.822266 394.699646 2187.282227 394.746094 2183.742188 394.791016 C 2176.828369 394.876465 2169.914307 394.944031 2163 395 C 2162.976807 408.118652 2162.958984 421.237305 2162.948242 434.355957 C 2162.943115 440.449219 2162.936035 446.54248 2162.924561 452.635742 C 2162.913574 458.529663 2162.907715 464.423523 2162.905273 470.317444 C 2162.90332 472.552185 2162.899902 474.786926 2162.894287 477.021667 C 2162.870117 487.379639 2162.876465 497.725708 2163.400635 508.072754 C 2163.450439 509.131348 2163.450439 509.131348 2163.500977 510.211304 C 2164.08252 520.033691 2166.64624 530.07312 2174 537 C 2183.922119 544.637756 2194.855957 546.540466 2207.125 546.375 C 2208.216064 546.365601 2209.306885 546.35614 2210.430908 546.346436 C 2224.885498 546.079224 2237.575928 543.286011 2251 538 C 2251.98999 537.670044 2252.97998 537.339966 2254 537 C 2257.938965 550.298096 2258.330566 567.456543 2252 580 C 2251.552734 580.886841 2251.105469 581.773743 2250.644531 582.6875 C 2244.015381 594.630981 2234.527344 600.936035 2221.671875 605.070313 C 2192.725586 612.561401 2159.851318 607.808472 2133.888672 593.134277 C 2115.656494 582.184631 2103.014404 565.653931 2097.496338 545.110596 C 2096.686768 541.667236 2096.262939 538.213135 2095.893066 534.69873 C 2095.80957 533.921143 2095.726318 533.143555 2095.640381 532.342346 C 2094.767578 523.591858 2094.646973 514.857361 2094.585938 506.070313 C 2094.567139 504.302246 2094.547607 502.53418 2094.527344 500.766113 C 2094.476563 496.15094 2094.436768 491.535767 2094.39917 486.920471 C 2094.359375 482.308899 2094.307861 477.697388 2094.257813 473.085938 C 2093.925781 441.61615 2093.961426 410.156128 2094.287598 378.686401 C 2094.337891 373.827759 2094.384521 368.969116 2094.421875 364.110352 C 2094.458984 359.318787 2094.505371 354.527344 2094.558105 349.735901 C 2094.576416 347.937256 2094.591553 346.138489 2094.603516 344.339783 C 2094.749756 322.828186 2097.739746 306.053528 2113.089844 289.785156 C 2117.42749 285.705933 2122.21875 282.37738 2127.1875 279.125 C 2127.769775 278.743225 2128.352051 278.361389 2128.951904 277.968018 C 2139.280273 271.436523 2148.897461 272 2161 272 Z"/>
    <path id="path7" fill="#000000" stroke="none" d="M 484 261 C 489.086212 260.925232 494.172119 260.871094 499.258789 260.835205 C 500.985077 260.820251 502.711334 260.799805 504.4375 260.773682 C 519.403503 260.552856 531.202148 261.667542 542.6875 272.1875 C 552.224792 282.225586 553.305847 294.622253 553.240479 307.81311 C 553.242188 309.082642 553.243896 310.352173 553.245667 311.660095 C 553.250122 315.162903 553.242188 318.665588 553.232117 322.168396 C 553.22345 325.953552 553.226379 329.738647 553.227905 333.523804 C 553.228943 340.074951 553.222717 346.626038 553.211426 353.177124 C 553.19519 362.648804 553.190002 372.120483 553.1875 381.592163 C 553.183105 396.960815 553.1698 412.329407 553.150879 427.697998 C 553.132507 442.623779 553.118347 457.549561 553.109863 472.475342 C 553.109314 473.395996 553.108826 474.316589 553.108276 475.265076 C 553.105652 479.883728 553.103149 484.50238 553.100647 489.121033 C 553.079895 527.414063 553.044678 565.707031 553 604 C 550.627686 604.164185 548.25531 604.32666 545.882813 604.488281 C 545.218689 604.534424 544.554565 604.580566 543.870361 604.628052 C 527.710571 605.7229 511.950958 605.640747 498.648438 595.144531 C 488.381927 585.512451 484.357147 572.991699 483.908844 559.194458 C 483.874481 555.959473 483.871521 552.72583 483.87973 549.490601 C 483.878876 548.253784 483.878021 547.016907 483.877136 545.742554 C 483.875793 542.331055 483.878906 538.919556 483.883942 535.507935 C 483.888275 531.820984 483.88678 528.133972 483.886017 524.447021 C 483.885498 518.066162 483.888641 511.685303 483.894257 505.304443 C 483.902405 496.078918 483.904999 486.853394 483.90625 477.627869 C 483.908447 462.658569 483.9151 447.68927 483.924561 432.719971 C 483.933746 418.18219 483.940826 403.64447 483.945068 389.106689 C 483.945313 388.209961 483.945587 387.313232 483.945862 386.389343 C 483.947174 381.890564 483.948425 377.391846 483.949677 372.893066 C 483.960022 335.595337 483.977631 298.297668 484 261 Z"/>
    <path id="path8" fill="#000000" stroke="none" d="M 1947.178711 339.704834 C 1949.200073 339.687927 1951.221191 339.644104 1953.242188 339.599609 C 1966.856079 339.512329 1979.61438 342.533325 1989.996094 351.777344 C 2001.439697 363.811523 2002.299438 379.338135 2002.287109 395.131104 C 2002.293213 396.50415 2002.300049 397.877258 2002.307861 399.250305 C 2002.322632 402.181946 2002.331421 405.113525 2002.335571 408.045166 C 2002.342285 412.690918 2002.364136 417.336487 2002.388062 421.982178 C 2002.440918 432.679077 2002.474487 443.375977 2002.507813 454.072937 C 2002.538574 463.888489 2002.573486 473.703979 2002.624146 483.519409 C 2002.647339 488.127686 2002.661133 492.73584 2002.667603 497.344177 C 2002.673584 500.220398 2002.687744 503.096558 2002.703979 505.972717 C 2002.712524 507.920654 2002.711426 509.868652 2002.709961 511.81665 C 2002.789307 523.177612 2003.398682 533.989197 2011 543 C 2013.527344 544.891663 2016.016113 546.005371 2019 547 C 2020.155029 547.391846 2021.310059 547.783752 2022.5 548.1875 C 2030.097534 549.951172 2037.733398 550.251648 2045.5 550.5625 C 2046.513184 550.605713 2047.526367 550.648865 2048.570313 550.693359 C 2051.046875 550.798462 2053.523438 550.900635 2056 551 C 2056.108154 557.883667 2055.830322 564.646851 2055.1875 571.5 C 2055.082275 572.809021 2055.082275 572.809021 2054.974609 574.144531 C 2054.065186 583.967957 2052.089355 593.185791 2044.6875 600.1875 C 2030.529419 609.735962 2008.242554 608.768738 1992 605.8125 C 1973.223022 601.373901 1957.058716 591.954102 1946.25 575.625 C 1937.387207 560.853638 1933.821045 545.605347 1933.873047 528.483521 C 1933.87146 527.676147 1933.869873 526.868774 1933.868286 526.036987 C 1933.86438 523.358643 1933.867432 520.680298 1933.870605 518.001953 C 1933.869263 516.071228 1933.867432 514.140503 1933.865234 512.209839 C 1933.860718 506.987305 1933.862549 501.764771 1933.865723 496.542297 C 1933.868164 491.076172 1933.865845 485.610046 1933.864258 480.143921 C 1933.862427 470.974487 1933.864868 461.805115 1933.869629 452.635742 C 1933.875122 442.02179 1933.873291 431.407837 1933.867798 420.793945 C 1933.863281 411.682129 1933.862671 402.570313 1933.865234 393.458496 C 1933.866821 388.015381 1933.866943 382.572205 1933.863647 377.129028 C 1933.86084 372.020386 1933.862793 366.911804 1933.868652 361.803162 C 1933.869873 359.92334 1933.869507 358.043518 1933.86731 356.163635 C 1933.864624 353.609253 1933.868042 351.054993 1933.873047 348.50061 C 1933.870728 347.747009 1933.86853 346.993469 1933.866211 346.217041 C 1933.900391 337.334656 1939.515259 339.749329 1947.178711 339.704834 Z"/>
    <path id="path9" fill="#fefdfc" stroke="none" d="M 1992 55.375 C 1993.689575 56.551086 1995.358276 57.757996 1997 59 C 1997.727051 59.545288 1998.454102 60.090576 1999.203125 60.652344 C 2009.989258 69.400635 2017.829224 83.296204 2020 97 C 2021.760498 114.420166 2017.530151 130.36792 2007.109375 144.578125 C 1998.023682 155.548279 1984.249512 164.189453 1970 166 C 1950.479004 167.130127 1934.375122 164.455688 1919.125 151.1875 C 1907.678955 140.140747 1899.979614 125.166138 1899.619141 109.014648 C 1899.669922 91.011475 1905.393433 76.280884 1917.878906 62.992188 C 1938.079834 44.018921 1968.399292 41.07251 1992 55.375 Z"/>
    <path id="path10" fill="#e20613" stroke="none" d="M 1959 20 C 1959 28.580017 1959 37.159973 1959 46 C 1956.359985 46.494995 1953.719971 46.98999 1951 47.5 C 1933.986816 51.092102 1919.896851 59.081177 1910.125 73.75 C 1906.091553 80.113342 1903.754395 86.668945 1902 94 C 1901.810547 94.618774 1901.620972 95.237488 1901.425781 95.875 C 1898.479736 110.578308 1902.20459 126.40271 1910 139 C 1918.637817 151.637817 1930.466431 160.500122 1945.4375 164.3125 C 1951.545044 165.444824 1957.807739 165.665283 1964 166 C 1962.680054 166.330017 1961.359985 166.660034 1960 167 C 1960 211.549988 1960 256.099976 1960 302 C 1957.623413 299.623474 1956.235962 297.971436 1954.574219 295.175781 C 1953.885376 294.023438 1953.885376 294.023438 1953.182617 292.8479 C 1952.689209 292.01123 1952.195801 291.174561 1951.6875 290.3125 C 1951.161865 289.42749 1950.63623 288.54248 1950.094727 287.630615 C 1948.391357 284.756775 1946.695435 281.87854 1945 279 C 1944.172607 277.602966 1944.172607 277.602966 1943.328613 276.177734 C 1860.334839 135.984619 1860.334839 135.984619 1873 85 C 1879.786621 62.120667 1895.194824 42.648621 1916 31 C 1929.595093 23.7771 1943.56665 20 1959 20 Z"/>
    <path id="path11" fill="#070707" stroke="none" d="M 1963 59 C 1963.660034 59.330017 1964.319946 59.659973 1965 60 C 1965.024902 65.407715 1965.042969 70.815369 1965.054932 76.223145 C 1965.059937 78.060059 1965.066772 79.896973 1965.075439 81.733887 C 1965.087646 84.385132 1965.093262 87.036255 1965.097656 89.6875 C 1965.102783 90.499268 1965.108032 91.311096 1965.113281 92.147461 C 1965.11377 97.187378 1964.720947 102.01062 1964 107 C 1965.098267 106.891724 1965.098267 106.891724 1966.21875 106.78125 C 1974.368408 106.082703 1982.510498 105.804871 1990.6875 105.6875 C 1992.282715 105.643005 1992.282715 105.643005 1993.910156 105.597656 C 1994.913086 105.589905 1995.915894 105.582214 1996.949219 105.574219 C 1997.849854 105.559631 1998.750488 105.545044 1999.678467 105.530029 C 2002 106 2002 106 2003.827393 107.862549 C 2005 110 2005 110 2004.8125 112.625 C 2004 115 2004 115 2002 117 C 1999.402466 117.187927 1996.913818 117.255615 1994.316406 117.230469 C 1993.546265 117.22998 1992.776123 117.229553 1991.982666 117.229065 C 1990.345947 117.226074 1988.709229 117.21814 1987.07251 117.205811 C 1984.603516 117.187805 1982.13501 117.185303 1979.666016 117.185547 C 1971.39624 117.166382 1963.22229 116.994751 1955 116 C 1954.974976 115.11853 1954.949829 114.237061 1954.924072 113.328857 C 1954.828003 110.005676 1954.72876 106.682617 1954.627686 103.359619 C 1954.584839 101.931274 1954.543091 100.502869 1954.502686 99.074463 C 1954.286499 91.465515 1953.980103 83.90033 1953.224854 76.321533 C 1952.923828 73.213745 1952.760132 70.121216 1952.6875 67 C 1952.650146 65.92749 1952.612793 64.85498 1952.574219 63.75 C 1953 61 1953 61 1954.824219 59.109375 C 1957.865723 57.558594 1959.762329 58.155396 1963 59 Z"/>
</svg>
